<svg xmlns="http://www.w3.org/2000/svg" xmlns:xlink="http://www.w3.org/1999/xlink" viewBox="0 0 1091.19 322.43"><defs><style>.cls-1{fill:#09152e;}.cls-2{fill:#214faa;}.cls-3{fill:#f4e600;}.cls-4{fill:url(#Gradiente_sem_nome_83);}.cls-5{fill:#fff;}.cls-6{fill:url(#Gradiente_sem_nome_30);}.cls-7{fill:url(#Gradiente_sem_nome_30-2);}</style><linearGradient id="Gradiente_sem_nome_83" x1="893.56" y1="187.75" x2="893.56" y2="242.67" gradientTransform="translate(413.89 -568.81) rotate(45)" gradientUnits="userSpaceOnUse"><stop offset="0" stop-color="#efe306"/><stop offset="0.54" stop-color="#21b356"/><stop offset="1" stop-color="#017cbe"/></linearGradient><linearGradient id="Gradiente_sem_nome_30" x1="1025.69" y1="51.74" x2="1025.69" y2="242.15" gradientUnits="userSpaceOnUse"><stop offset="0" stop-color="#30bbf0"/><stop offset="1" stop-color="#225ea7"/></linearGradient><linearGradient id="Gradiente_sem_nome_30-2" x1="918.36" y1="11.48" x2="918.36" y2="300.83" xlink:href="#Gradiente_sem_nome_30"/></defs><title>Klo-GBA-JS-Logo</title><g id="Camada_2" data-name="Camada 2"><g id="Logotipo_EoC" data-name="Logotipo EoC"><path class="cls-1" d="M1089.82,75.63l-10.24-19.25a11.43,11.43,0,0,0-10.07-6.08h-.12A133.45,133.45,0,0,0,1029.07,58c-12.33,4.56-22.37,10.88-29.84,18.8-.56.61-1.11,1.22-1.66,1.84,2.72-31.69,4.69-55.44,4.75-56A11.47,11.47,0,0,0,984.57,12l-37.18,24.5a11.45,11.45,0,0,0-5.14,8.83l-.13,2H913.64a16,16,0,0,0-11.06,4.41,15.62,15.62,0,0,0,3.77,25.31,15.88,15.88,0,0,0,15.89,14.46h18.17c-.66,26.29-2.43,90.2-4.67,123.69l-25.17-25.17a11.06,11.06,0,0,0-15.62,0L869.73,215.3,827.31,78a10.58,10.58,0,0,0-12.78-7.14l-26.8,6.89a10.6,10.6,0,0,0-7.29,6.55L725.7,230.15H716c7.07-9.55,10.69-18.92,10.77-28a48.75,48.75,0,0,0-7.47-27.2c1.92-1.23,3.93-2.62,5.95-4.19C739.48,159.69,747,145.57,747,129.93c0-16.51-7.17-32-20.21-43.51-10.37-9.2-24-15.37-35.56-16.13-3.77-.25-9.74-.37-18.24-.37-14,0-29.87.34-30,.34a11.06,11.06,0,0,0-10.8,10.67L631.32,106H616.66a11.32,11.32,0,0,0-1.8-8.28L599.24,74.86a11.3,11.3,0,0,0-9.34-4.93,10.75,10.75,0,0,0-1.87.16,193.7,193.7,0,0,0-53.49,18.78c-28.46,15.25-46.5,35.95-53.12,60.62a11.2,11.2,0,0,0-3.36-.53c-.36,0-.73,0-1.1.06l-24.5,2.44C452,101.22,419.85,83.14,389.56,83a11.6,11.6,0,0,0-11.48-13.07H350.73a11.55,11.55,0,0,0-3.91.68A96.25,96.25,0,0,0,324.6,83h-44a16.43,16.43,0,0,0-6,1.14,11.55,11.55,0,0,0-11.11-8.33,11.39,11.39,0,0,0-1.85.15L232.72,80.6l22-19.23a11,11,0,0,0-5-19.11l-25.84-5.54a11,11,0,0,0-9,2L113.47,115.25l7.43-51.19a11.06,11.06,0,0,0-12.57-12.51l-46.84,7a11.05,11.05,0,0,0-9.41,10.56l-.44,13.28H24.55A15.38,15.38,0,0,0,13.9,86.67,15,15,0,0,0,17.53,111,15.28,15.28,0,0,0,32.83,125H50.21L45.71,259.1a11,11,0,0,0,5.07,9.67l23.61,15.14A11,11,0,0,0,91.32,276L100,207.15l92.15,91.76a11,11,0,0,0,18.74-6.33L216,255.13a8.55,8.55,0,0,0,.08-1l.15,5.56A11.58,11.58,0,0,0,227.8,271H334.23a11.59,11.59,0,0,0,11.43-9.73L350,234.71a85.74,85.74,0,0,0,21,2.57c22.74,0,43.93-10.17,59.67-28.63a94.54,94.54,0,0,0,14.89-24.1,10.91,10.91,0,0,0,4.37,1.56l26.74,3.46a12.35,12.35,0,0,0,1.42.09,11.54,11.54,0,0,0,2-.19c.13.72.26,1.43.41,2.14H470.12A15.71,15.71,0,0,0,459.18,196a15.39,15.39,0,0,0,3.75,24.92,15.65,15.65,0,0,0,15.67,14.26h25.61c18.91,19,39.25,28.68,60.54,28.68,17.11,0,34.15-8.08,46.75-22.19a75.56,75.56,0,0,0,16.19-29.24l-.37,10.73a11.09,11.09,0,0,0,3.37,8.33l32.41,31.29a11.07,11.07,0,0,0,13.26,1.58,165.57,165.57,0,0,0,15-10.22,14.94,14.94,0,0,0,4.46,3.5A14.67,14.67,0,0,0,710.51,271h.28a10.65,10.65,0,0,0,1.79,6.83l12.68,18.74a10.62,10.62,0,0,0,8.79,4.67l.75,0a10.61,10.61,0,0,0,8.79-6l48.58-100.13,26.72-3.87,18,62.18a10.59,10.59,0,0,0,8.09,7.44,10.15,10.15,0,0,0,2.1.21,10.61,10.61,0,0,0,8.25-3.93l16.16-20,14.08,14.07a11.47,11.47,0,0,0-7.46,4.22L855.26,284.2a11.48,11.48,0,0,0,.93,15.33c15.22,15,32.83,22.9,50.91,22.9,19.31,0,37.53-9.26,51.3-26.09,12.16-14.85,20.51-35.09,24.44-59L996,258a11.43,11.43,0,0,0,8.08,5.2,88.52,88.52,0,0,0,11.42.64c10.74,0,26.47-1.56,40.38-9,17.81-9.55,27.92-26.15,29.25-48,1.76-29.08-17-47.1-32.08-61.58-10.37-10-19.31-18.55-18.8-27.34,1.41-23.88,45.24-25.18,45.69-25.19a11.41,11.41,0,0,0,9.69-5.7A11.67,11.67,0,0,0,1089.82,75.63ZM192.17,193.28a16.1,16.1,0,0,0-11.2,4.48,15.7,15.7,0,0,0-2.55,3.19l-33.47-43.46,67.22-58.88,2.38,94.67Zm21.64,53.61-6.94-9h8.81l.37,14.74A11,11,0,0,0,213.81,246.89Zm55.27-31.63,4.63-99.45a16.08,16.08,0,0,0,15.54,11.77h3.3a82,82,0,0,0-3.07,22.54c0,25.12,8,46.86,23.13,62.85a77.19,77.19,0,0,0,6.47,6.06Zm359.74-35.85c-5.75-23.84-26-36.56-45.17-36.56-11.19,0-22.17,4.86-30.9,13.67-9,9.09-14.09,20.9-14,32.4a36.27,36.27,0,0,0,3.38,15.19,45.39,45.39,0,0,1-12.65-31.74c0-19.54,12.44-35,37-45.87a148.45,148.45,0,0,1,29.06-9.22,14.92,14.92,0,0,0-.59,4.09,15.33,15.33,0,0,0,8.73,13.78,15.49,15.49,0,0,0,15.54,14.43h10.65Zm52.88,19.36c-.35,3-4.5,7.34-9.44,10.95l-1.39-1.47L673,191.85h1.9a7.49,7.49,0,0,1,5.43,2.41A5.49,5.49,0,0,1,681.7,198.77Zm5-59.45h-.06l-6.62-.08,2.32-20.62H690c4.8,0,8.68,1.25,10.63,3.42a3.8,3.8,0,0,1,1.13,2.87C700.72,135,690.53,139.32,686.66,139.32Zm352.61,64.17c-1.35,11.3-14.54,12.21-18.63,12.21H990a11.35,11.35,0,0,0-4.77,1.06c1.72-17.62,4-42.53,6.29-68.65a67.18,67.18,0,0,0,4.29,6.65,80.49,80.49,0,0,0,5.53,6.71,16.47,16.47,0,0,0-2.49,2,15.82,15.82,0,0,0,3.79,25.46,15.91,15.91,0,0,0,15.84,14.59Z"/><polygon class="cls-2" points="785.15 151.17 811.64 148.71 799.74 106.05 785.15 151.17"/><path class="cls-2" d="M677.45,140.25c9.08,0,24.4-8,26.1-24.32.93-8.94-6.9-18.47-22.75-18.47H663.21l-4.78,42.61s13.31.09,18.78.18Zm-4.37-31.75h7.72c4.8,0,8.68,1.25,10.64,3.42a3.8,3.8,0,0,1,1.12,2.87c-1,10.12-11.24,14.41-15.11,14.41h-.07l-6.61-.08Z"/><path class="cls-2" d="M683.46,189.92c1.31-11.27-8.05-19.25-17.76-19.25H654.11L650,201.89l11.14,11.8S681.9,203.34,683.46,189.92Zm-11-1.28c-.35,3-4.5,7.34-9.44,10.95l-1.39-1.47,2.14-16.39h1.9a7.47,7.47,0,0,1,5.43,2.41A5.48,5.48,0,0,1,672.49,188.64Z"/><path class="cls-2" d="M1080.62,65.51l-10.24-19.25a11.42,11.42,0,0,0-10.08-6.09h-.12a133.48,133.48,0,0,0-40.32,7.66c-12.33,4.55-22.37,10.87-29.84,18.8-.57.6-1.12,1.22-1.66,1.84,2.71-31.68,4.7-55.44,4.75-56A11.47,11.47,0,0,0,975.37,1.89l-37.18,24.5a11.48,11.48,0,0,0-5.14,8.83l-.13,2H904.43a16,16,0,0,0-11.07,4.41,15.61,15.61,0,0,0,3.78,25.31A15.88,15.88,0,0,0,913,81.42H931.2c-.66,26.29-2.42,90.2-4.66,123.69l-25.17-25.17a11,11,0,0,0-15.62,0l-25.23,25.23L818.1,67.89a10.6,10.6,0,0,0-12.78-7.14l-26.8,6.89a10.61,10.61,0,0,0-7.29,6.55L716.49,220h-9.71c7.07-9.55,10.7-18.92,10.77-28a48.79,48.79,0,0,0-7.47-27.21c1.93-1.23,3.93-2.62,5.95-4.18,14.25-11.06,21.78-25.17,21.78-40.82,0-16.5-7.18-32-20.21-43.51-10.36-9.19-24-15.37-35.56-16.13-3.77-.25-9.73-.37-18.23-.37-14,0-29.88.34-30,.35A11,11,0,0,0,623,70.81l-.85,25.08H607.45a11.31,11.31,0,0,0-1.8-8.28L590,64.73A11.31,11.31,0,0,0,578.82,60a193.62,193.62,0,0,0-53.49,18.78c-28.46,15.25-46.49,35.94-53.12,60.61a11,11,0,0,0-3.36-.53q-.55,0-1.09.05l-24.5,2.44C442.82,91.1,410.64,73,380.35,72.87A11.59,11.59,0,0,0,368.88,59.8H341.53a11.58,11.58,0,0,0-3.91.68,96.29,96.29,0,0,0-22.22,12.38h-44a16.28,16.28,0,0,0-6,1.14,11.58,11.58,0,0,0-13-8.19l-28.87,4.66,22-19.23a11,11,0,0,0-5-19.11l-25.84-5.55a11,11,0,0,0-9,2L104.27,105.12l7.43-51.19A11,11,0,0,0,99.12,41.43l-46.85,7A11,11,0,0,0,42.88,59L42.43,72.3H15.34A15.38,15.38,0,0,0,4.69,76.54a15,15,0,0,0,3.64,24.36,15.29,15.29,0,0,0,15.3,13.93H41L36.5,249a11,11,0,0,0,5.08,9.67l23.61,15.15a11,11,0,0,0,16.92-7.92L90.8,197l92.15,91.76a11,11,0,0,0,18.74-6.33L206.8,245c0-.32.07-.64.08-1l.14,5.56a11.58,11.58,0,0,0,11.58,11.29H325a11.58,11.58,0,0,0,11.43-9.72l4.32-26.58a85.75,85.75,0,0,0,21,2.57c22.74,0,43.93-10.17,59.67-28.63a94.54,94.54,0,0,0,14.88-24.1,11,11,0,0,0,4.37,1.56l26.75,3.46a11,11,0,0,0,3.45-.1c.13.72.26,1.43.41,2.14H460.91A15.72,15.72,0,0,0,450,185.86a15.39,15.39,0,0,0,3.75,24.92A15.65,15.65,0,0,0,469.39,225H495c18.9,19,39.25,28.68,60.55,28.68,17.11,0,34.15-8.09,46.75-22.19a75.52,75.52,0,0,0,16.19-29.24L618.13,213a11,11,0,0,0,3.37,8.32l32.41,31.29a11,11,0,0,0,13.26,1.59,165.81,165.81,0,0,0,15-10.22,14.8,14.8,0,0,0,4.46,3.5,14.68,14.68,0,0,0,14.7,13.38h.28a10.61,10.61,0,0,0,1.78,6.83L716,286.46a10.61,10.61,0,0,0,8.79,4.67l.76,0a10.61,10.61,0,0,0,8.79-6L783,185l26.73-3.87,18,62.18A10.61,10.61,0,0,0,846.16,247l16.17-20,14.07,14.07a11.42,11.42,0,0,0-7.45,4.21l-22.89,28.73A11.47,11.47,0,0,0,847,289.4c15.22,15,32.83,22.91,50.91,22.91,19.31,0,37.52-9.27,51.3-26.09,12.16-14.85,20.51-35.1,24.44-59l13.15,20.67a11.43,11.43,0,0,0,8.08,5.2,90.3,90.3,0,0,0,11.42.64c10.74,0,26.47-1.57,40.38-9,17.81-9.54,27.92-26.16,29.24-48,1.76-29.08-17-47.1-32.08-61.58-10.36-9.95-19.31-18.54-18.79-27.34,1.4-23.88,45.24-25.18,45.68-25.19a11.42,11.42,0,0,0,9.7-5.7A11.67,11.67,0,0,0,1080.62,65.51ZM205.35,183.15H183a16.11,16.11,0,0,0-11.21,4.48,15.61,15.61,0,0,0-2.54,3.18l-33.48-43.46L203,88.48ZM190.74,281,88,178.62l-.06.12L81,186.44l-9.85,78.05L47.54,249.35l4.89-145.55H23.62a4.2,4.2,0,0,1-4.3-4.1,4,4,0,0,1,1.26-2.9,4.37,4.37,0,0,1,3-1.2H52.7l.14-4.05H15.34a4.2,4.2,0,0,1-4.3-4.1,4,4,0,0,1,1.26-2.9,4.39,4.39,0,0,1,3-1.2H53.12l.8-24,46.85-7L89.48,130.12,212.35,37.39l25.84,5.55L120.65,145.88l57.67,74.86a16,16,0,0,0,1.11,1.44l16.42,21.32Zm13.86-44.19-6.94-9h8.81l.37,14.74A11,11,0,0,0,204.61,236.76ZM325,249.3H218.6l-.84-33.14H191.64a4.41,4.41,0,0,1-4.51-4.29,4.18,4.18,0,0,1,1.32-3,4.59,4.59,0,0,1,3.18-1.26h25.91l-.11-4.26H183a4.41,4.41,0,0,1-4.51-4.29,4.19,4.19,0,0,1,1.32-3,4.59,4.59,0,0,1,3.19-1.26h34.26L214.42,83.68l39.81-6.43-6.45,138.59L329.46,222Zm-65.15-44.17,4.63-99.45A16.08,16.08,0,0,0,280,117.46h3.29A82.05,82.05,0,0,0,280.26,140c0,25.13,8,46.86,23.13,62.86a76,76,0,0,0,6.47,6.06Zm101.9,10.43c-40,0-69.93-29.95-69.93-75.57a67.56,67.56,0,0,1,8.85-34.12H280a4.41,4.41,0,0,1-4.51-4.29,4.19,4.19,0,0,1,1.32-3A4.61,4.61,0,0,1,280,97.29H306.5c1.17-1.49,2.39-2.91,3.62-4.26H271.37a4.41,4.41,0,0,1-4.51-4.29,4.2,4.2,0,0,1,1.32-3,4.61,4.61,0,0,1,3.19-1.26h48a86.1,86.1,0,0,1,22.2-13.06h27.35s-53.17,27.38-50.15,71c1.3,18.75,18.54,44.85,41.51,45.68l1.55,0c25.52,0,39.89-23.07,39.89-43.82,0-17.67-12.61-25.42-21.28-25.42-3.24,0-5.92,1.08-7.21,3.12,11.21,1.44,14,13,14,21.17,0,16.34-11.58,24.44-25.87,24.44s-26.37-10-26.58-32.66c-.25-27.11,16.6-50.42,45.21-50.42,25.51,0,51.74,14.26,51.74,57.88C431.7,174.48,404.15,215.57,361.77,215.57Zm107.08-47.09L442.11,165v-9.9c.16-.88.3-1.76.43-2.64l26.32-2.62Zm524.61,10.3a15.9,15.9,0,0,0,15.84,14.58h20.75c-1.35,11.3-14.54,12.21-18.63,12.21h-30.6a11.32,11.32,0,0,0-4.77,1.06c1.72-17.62,4-42.53,6.28-68.65a67.77,67.77,0,0,0,4.3,6.64,79.59,79.59,0,0,0,5.53,6.72,15.83,15.83,0,0,0,1.3,27.44ZM555.55,242.4c-21.91,0-40.26-12-55.72-28.68H469.39a4.3,4.3,0,0,1-4.4-4.19,4.09,4.09,0,0,1,1.29-3,4.5,4.5,0,0,1,3.12-1.23h23.79q-1.36-2-2.59-4.15H460.91a4.3,4.3,0,0,1-4.4-4.19,4.09,4.09,0,0,1,1.29-3,4.48,4.48,0,0,1,3.11-1.23h25.56a81.88,81.88,0,0,1-5.82-31.27c0-73.62,100-90.41,100-90.41L596.31,94S509,103.37,509,162.25c0,29,21.12,53.48,47.46,53.48h.75c15.52-.27,31.59-12.39,31.86-31.32.16-11-8.28-15.73-14-15.73-2.17,0-4,.68-4.77,2,7,.9,8.72,8.1,8.72,13.18,0,10.17-9.39,17.94-18.28,17.94s-19.68-8.92-19.81-23.05c-.16-16.88,15.78-34.66,33.58-34.66,15.88,0,35.47,12.15,35.47,39.3C609.92,213,585.23,242.4,555.55,242.4Zm18.9-109.68c-11.2,0-22.17,4.85-30.91,13.67-9,9.08-14.09,20.89-14,32.4A36.48,36.48,0,0,0,532.94,194a45.41,45.41,0,0,1-12.65-31.74c0-19.54,12.43-35,36.95-45.87a148.9,148.9,0,0,1,29.06-9.22,15.07,15.07,0,0,0-.58,4.09A15.35,15.35,0,0,0,594.43,125,15.49,15.49,0,0,0,610,139.46h10.66l-1,29.83C613.86,145.44,593.65,132.73,574.45,132.73Zm87.13,112L629.17,213.4l2.89-85H610a4.42,4.42,0,0,1-4.52-4.3,4.19,4.19,0,0,1,1.32-3,4.6,4.6,0,0,1,3.2-1.26h22.38l.15-4.26H601.28a4.42,4.42,0,0,1-4.52-4.3,4.18,4.18,0,0,1,1.32-3,4.6,4.6,0,0,1,3.2-1.26h31.51L634,71.19s15.78-.34,29.8-.34c7,0,13.58.09,17.51.34,16.6,1.08,45.44,18.36,45.44,48.62,0,29.61-35,42-35,42s14.95,8,14.76,30.14c-.09,9.89-6.32,19.72-14.11,28.16a14.72,14.72,0,0,0-9.31,4.06,14.5,14.5,0,0,0-4.33,8.5A160.21,160.21,0,0,1,661.57,244.69Zm176.34-4.32-20.62-71-41.43,6-51,105.19-12.68-18.74,4.32-11.5H701.3a4,4,0,0,1-4.13-3.93,3.85,3.85,0,0,1,1.21-2.78,4.22,4.22,0,0,1,2.92-1.15h18.12l1.46-3.9H693.35a4.22,4.22,0,0,1-3-1.19l.86-.75q3.37-3,6.31-5.93h26.28L781.17,77.91,808,71l46.14,149.33Zm55.65-52.62L921,215.21l-27.46,27.46L866.1,215.21Zm29.57,41c-4.05,13.32-11.78,21.36-21.38,21.38Zm-25.24,72.12c-14.49,0-29.48-6.43-42.86-19.61l22.89-28.73c8.09,6.16,16.23,9.09,23.79,9.09,18.21,0,33-17,35.59-46.66,3.25-37.68,5.65-145,5.65-145H913a4.37,4.37,0,0,1-4.46-4.25,4.13,4.13,0,0,1,1.31-3A4.54,4.54,0,0,1,913,61.43h30.2l.14-4.21H904.43A4.37,4.37,0,0,1,900,53a4.14,4.14,0,0,1,1.31-3,4.56,4.56,0,0,1,3.16-1.24h39.23L944.5,36l37.18-24.5s-12.76,152.65-18,203.44C957.91,271.12,929.05,300.83,897.89,300.83ZM1013.61,107c-1.82,31,53.52,45.25,50.88,88.9-2.49,41.14-39.93,46.21-58.21,46.21a80.2,80.2,0,0,1-9.88-.54l-15.57-24.47h30.61c9.46,0,28.89-3.91,30.12-23.94a23.82,23.82,0,0,0-2.06-11.39h-30.18a4.37,4.37,0,0,1-4.45-4.29,4.2,4.2,0,0,1,1.31-3,4.5,4.5,0,0,1,3.15-1.26h24.51c-1.26-1.45-2.64-2.86-4.1-4.25h-29a4.37,4.37,0,0,1-4.46-4.29,4.19,4.19,0,0,1,1.31-3,4.51,4.51,0,0,1,3.15-1.26h18.92c-16-12.89-34.72-27-33.75-55.19,1.83-52.74,74.39-53.48,74.39-53.48L1070.54,71S1015.68,71.78,1013.61,107Z"/><path class="cls-3" d="M329.46,222,325,249.3H218.6l-.84-33.14H191.64a4.41,4.41,0,0,1-4.51-4.29,4.18,4.18,0,0,1,1.32-3,4.59,4.59,0,0,1,3.18-1.26h25.91l-.11-4.26H183a4.41,4.41,0,0,1-4.51-4.29,4.19,4.19,0,0,1,1.32-3,4.59,4.59,0,0,1,3.19-1.26h34.26L214.42,83.68l39.81-6.43-6.45,138.59Z"/><path class="cls-3" d="M808,71l-26.8,6.89L723.84,230.64H693.35a4.2,4.2,0,0,0-2.92,1.15,3.83,3.83,0,0,0-1.21,2.78,4,4,0,0,0,4.13,3.93h27.53l-1.46,3.9H701.3a4.22,4.22,0,0,0-2.92,1.15,3.85,3.85,0,0,0-1.21,2.78,4,4,0,0,0,4.13,3.93h15.17l-4.32,11.5,12.68,18.74,51-105.19,41.43-6,20.62,71,16.2-20Zm-22.82,80.15L799.74,106l11.9,42.66Z"/><path class="cls-3" d="M431.7,142.33c0,32.14-27.55,73.24-69.93,73.24-40,0-69.93-29.95-69.93-75.57a67.56,67.56,0,0,1,8.85-34.12H280a4.41,4.41,0,0,1-4.51-4.29,4.19,4.19,0,0,1,1.32-3A4.61,4.61,0,0,1,280,97.29H306.5c1.17-1.49,2.39-2.91,3.62-4.26H271.37a4.41,4.41,0,0,1-4.51-4.29,4.2,4.2,0,0,1,1.32-3,4.61,4.61,0,0,1,3.19-1.25h48a86.1,86.1,0,0,1,22.2-13.06h27.35s-53.17,27.38-50.15,71c1.3,18.75,18.54,44.85,41.51,45.68,26.49,1,41.44-22.63,41.44-43.8,0-24.26-23.77-29.83-28.49-22.3,11.21,1.44,14,13,14,21.17,0,16.34-11.58,24.44-25.87,24.44s-26.37-10-26.58-32.66c-.25-27.11,16.6-50.42,45.21-50.42C405.47,84.45,431.7,98.71,431.7,142.33Z"/><path class="cls-3" d="M120.65,145.88l75.2,97.62L190.74,281,88,178.62l-.06.12L81,186.44l-9.85,78.05L47.54,249.35l4.89-145.55H23.62a4.2,4.2,0,0,1-4.3-4.1,4,4,0,0,1,1.26-2.9,4.37,4.37,0,0,1,3-1.2H52.7l.14-4.05H15.34a4.2,4.2,0,0,1-4.3-4.1,4,4,0,0,1,1.26-2.9,4.39,4.39,0,0,1,3-1.2H53.12l.8-24,46.85-7L89.48,130.12,212.35,37.39l25.84,5.55Z"/><path class="cls-3" d="M609.92,183.34c0,29.65-24.69,59.06-54.37,59.06-21.91,0-40.26-12-55.72-28.68H469.39a4.3,4.3,0,0,1-4.4-4.19,4.09,4.09,0,0,1,1.29-3,4.5,4.5,0,0,1,3.12-1.23h23.79q-1.36-2-2.59-4.15H460.91a4.3,4.3,0,0,1-4.4-4.19,4.09,4.09,0,0,1,1.29-3,4.48,4.48,0,0,1,3.11-1.23h25.56a81.88,81.88,0,0,1-5.82-31.27c0-73.62,100-90.41,100-90.41L596.31,94S509,103.37,509,162.25c0,29.23,21.52,53.94,48.2,53.47,15.52-.27,31.59-12.39,31.86-31.32.22-15.1-15.87-18.45-18.81-13.77,7,.9,8.72,8.1,8.72,13.18,0,10.17-9.39,17.94-18.28,17.94s-19.68-8.92-19.81-23.05c-.16-16.88,15.78-34.66,33.58-34.66C590.33,144,609.92,156.18,609.92,183.34Z"/><path class="cls-3" d="M726.76,119.8c0-30.26-28.84-47.53-45.44-48.62-11.8-.77-47.31,0-47.31,0l-1.22,35.75H601.28a4.6,4.6,0,0,0-3.2,1.26,4.18,4.18,0,0,0-1.32,3,4.42,4.42,0,0,0,4.52,4.3H632.5l-.15,4.26H610a4.6,4.6,0,0,0-3.2,1.26,4.19,4.19,0,0,0-1.32,3,4.42,4.42,0,0,0,4.52,4.3h22.09l-2.89,85,32.41,31.29s44.7-26.18,44.93-52.78c.19-22.15-14.76-30.14-14.76-30.14S726.76,149.41,726.76,119.8Zm-43.3,70.12c-1.56,13.42-22.29,23.77-22.29,23.77L650,201.89l4.07-31.22s8,0,11.44,0C675.31,170.58,684.79,178.59,683.46,189.92Zm20.09-74c-1.71,16.51-17.29,24.46-26.34,24.32-5.48-.09-18.78-.18-18.78-.18l4.78-42.61H680.8C696.66,97.45,704.48,107,703.55,115.92Z"/><polygon class="cls-3" points="442.11 152.52 468.86 149.86 468.86 168.48 442.11 165.03 442.11 152.52"/><rect class="cls-4" x="874.14" y="195.79" width="38.83" height="38.83" transform="translate(109.54 694.87) rotate(-45)"/><path class="cls-5" d="M893.56,194.26l20.95,20.95-20.95,20.95-20.95-20.95,20.95-20.95m0-6.51L866.1,215.21l27.46,27.46L921,215.21l-27.46-27.46Z"/><path class="cls-6" d="M1013.61,107c-1.82,31,53.52,45.25,50.88,88.9-3.31,54.57-68.09,45.67-68.09,45.67l-15.57-24.47h30.61c9.46,0,28.89-3.91,30.12-23.94a23.83,23.83,0,0,0-2.06-11.39h-30.18a4.37,4.37,0,0,1-4.45-4.29,4.2,4.2,0,0,1,1.31-3,4.5,4.5,0,0,1,3.15-1.26h24.51c-1.26-1.45-2.64-2.86-4.1-4.25h-29a4.37,4.37,0,0,1-4.46-4.29,4.19,4.19,0,0,1,1.31-3,4.51,4.51,0,0,1,3.15-1.26h18.92c-16-12.88-34.72-27-33.75-55.19,1.83-52.74,74.39-53.48,74.39-53.48L1070.54,71S1015.68,71.78,1013.61,107Z"/><path class="cls-3" d="M1013.61,107c2.07-35.26,56.93-36.06,56.93-36.06l-10.23-19.26s-72.57.74-74.4,53.49c-1,28.15,17.76,42.3,33.75,55.19h-18.92a4.49,4.49,0,0,0-3.15,1.25,4.2,4.2,0,0,0-1.31,3,4.38,4.38,0,0,0,4.46,4.29h29q2.2,2.08,4.11,4.25h-24.51a4.58,4.58,0,0,0-3.15,1.25,4.22,4.22,0,0,0-1.3,3,4.37,4.37,0,0,0,4.45,4.29h30.18a23.77,23.77,0,0,1,2.06,11.39c-1.23,20-20.65,23.92-30.12,23.94h-30.6l15.57,24.48a79.87,79.87,0,0,0,9.88.54c18.26,0,55.71-5.06,58.21-46.2C1067.13,152.29,1011.78,138,1013.61,107Zm46.87,88.65c-2.23,36.91-34.92,42.41-54.2,42.41-3.28,0-5.93-.18-7.56-.31l-10.56-16.61h23.28c15,0,32.85-7.29,34.11-27.73a32.71,32.71,0,0,0-2.42-13.32c-.08-.23-.19-.47-.29-.73h-33.27a2,2,0,0,1-2-1.92,1.84,1.84,0,0,1,.57-1.35,2,2,0,0,1,1.42-.57h31.05a62.6,62.6,0,0,0-7.72-9.16h-31.85a2,2,0,0,1-2-1.9,1.88,1.88,0,0,1,.59-1.36,2,2,0,0,1,1.4-.55h27.47l-6.38-5.36-1.46-1.17c-15.57-12.51-31.65-25.44-30.79-50.71.69-20,12.5-34.41,35.08-42.79a119.41,119.41,0,0,1,33-6.68L1064,67.33c-15.34,1.46-52.6,8.22-54.44,39.48-.93,16,11,27.47,23.58,39.58C1047.25,159.9,1061.8,173.88,1060.48,195.7Z"/><path class="cls-7" d="M981.68,11.48,944.5,36l-.83,12.74H904.43A4.56,4.56,0,0,0,901.28,50,4.14,4.14,0,0,0,900,53a4.37,4.37,0,0,0,4.46,4.25h38.94l-.14,4.21H913a4.54,4.54,0,0,0-3.16,1.25,4.13,4.13,0,0,0-1.31,3A4.37,4.37,0,0,0,913,69.94H943s-2.4,107.3-5.65,145c-3.63,42-31.81,58.57-59.38,37.57L855,281.23c42.18,41.53,100.2,16,108.67-66.31C968.92,164.13,981.68,11.48,981.68,11.48Z"/><path class="cls-3" d="M944.5,36l-.84,12.75H904.44a4.58,4.58,0,0,0-3.16,1.23A4.13,4.13,0,0,0,900,53a4.37,4.37,0,0,0,4.47,4.26h38.94l-.15,4.22H913a4.53,4.53,0,0,0-3.16,1.25,4.11,4.11,0,0,0-1.31,3A4.37,4.37,0,0,0,913,69.94H943s-2.4,107.3-5.65,145c-2.56,29.67-17.38,46.67-35.59,46.67-7.55,0-15.69-2.93-23.78-9.09L855,281.22c13.39,13.18,28.37,19.6,42.86,19.6,31.16,0,60-29.71,65.8-85.91,5.24-50.79,18-203.44,18-203.44ZM959.7,214.5c-2.65,25.76-10.43,47.16-22.5,61.9-10.78,13.16-24.75,20.41-39.31,20.41-12.95,0-25.82-5.5-37.43-16L878.69,258c7.57,5,15.45,7.63,23,7.63,21.41,0,37-19.76,39.6-50.33,2.29-26.55,4.9-104.74,6.21-147.79H913.6a2,2,0,0,1-2-1.9,1.87,1.87,0,0,1,.58-1.35,2.08,2.08,0,0,1,1.42-.55h34c.09-3.29.21-6,.3-8.77H905.08a2,2,0,0,1-2-1.9,1.85,1.85,0,0,1,.59-1.34,2,2,0,0,1,1.41-.56H948c.24-7.87.35-12.87.35-12.87L977,19.38C974.26,51.83,964.16,171.12,959.7,214.5Z"/></g></g></svg>