<svg xmlns="http://www.w3.org/2000/svg" xmlns:xlink="http://www.w3.org/1999/xlink" viewBox="0 0 1500.2 885.5"><defs><style>.cls-1{isolation:isolate;}.cls-2{fill:#f5b736;}.cls-3{fill:#3971d8;}.cls-4{fill:#d0670e;}.cls-5{fill:#b73827;}.cls-6{fill:#182f73;}.cls-7{fill:#d4a96c;}.cls-8{fill:#6c98e8;}.cls-10,.cls-11,.cls-12,.cls-13,.cls-14,.cls-15,.cls-16,.cls-17,.cls-18,.cls-19,.cls-20,.cls-21,.cls-22,.cls-23,.cls-24,.cls-26,.cls-27,.cls-28,.cls-34,.cls-35,.cls-8{mix-blend-mode:screen;}.cls-9{fill:#0f3c8f;opacity:0.8;}.cls-36,.cls-9{mix-blend-mode:multiply;}.cls-10{fill:#f2c485;}.cls-10,.cls-34,.cls-35{opacity:0.5;}.cls-11{fill:url(#Gradiente_sem_nome_232);}.cls-12{fill:url(#Gradiente_sem_nome_232-2);}.cls-13{fill:url(#Gradiente_sem_nome_232-3);}.cls-14{fill:url(#Gradiente_sem_nome_232-4);}.cls-15{fill:url(#Gradiente_sem_nome_232-5);}.cls-16{fill:url(#Gradiente_sem_nome_232-6);}.cls-17{fill:url(#Gradiente_sem_nome_232-7);}.cls-18{fill:url(#Gradiente_sem_nome_232-8);}.cls-19{fill:url(#Gradiente_sem_nome_232-9);}.cls-20{fill:url(#Gradiente_sem_nome_232-10);}.cls-21{fill:url(#Gradiente_sem_nome_232-11);}.cls-22{fill:#ffd987;opacity:0.25;}.cls-23{fill:url(#Gradiente_sem_nome_232-12);}.cls-24{fill:url(#Gradiente_sem_nome_215);}.cls-25{fill:url(#Gradiente_sem_nome_8);}.cls-26{fill:url(#Gradiente_sem_nome_223);}.cls-27{fill:url(#Gradiente_sem_nome_227);}.cls-28{fill:url(#Gradiente_sem_nome_232-13);}.cls-29,.cls-36{fill:#df8f28;}.cls-30{fill:#fad148;}.cls-31{fill:#fff;}.cls-32{opacity:0.2;}.cls-33{opacity:0.1;}.cls-34{fill:#f3e2a7;}.cls-35{fill:#ffa93d;}</style><linearGradient id="Gradiente_sem_nome_232" x1="1041.79" y1="350.95" x2="1070.68" y2="350.95" gradientUnits="userSpaceOnUse"><stop offset="0" stop-color="#ffeb8a"/><stop offset="0.09" stop-color="#fee580"/><stop offset="0.49" stop-color="#f9cc58"/><stop offset="0.81" stop-color="#f6bd3f"/><stop offset="1" stop-color="#f5b736"/></linearGradient><linearGradient id="Gradiente_sem_nome_232-2" x1="1081.82" y1="338.26" x2="1132.7" y2="338.26" xlink:href="#Gradiente_sem_nome_232"/><linearGradient id="Gradiente_sem_nome_232-3" x1="1135.22" y1="329.43" x2="1146.61" y2="329.43" xlink:href="#Gradiente_sem_nome_232"/><linearGradient id="Gradiente_sem_nome_232-4" x1="1145.01" y1="352.11" x2="1168" y2="352.11" xlink:href="#Gradiente_sem_nome_232"/><linearGradient id="Gradiente_sem_nome_232-5" x1="1047.16" y1="370.36" x2="1065.03" y2="370.36" xlink:href="#Gradiente_sem_nome_232"/><linearGradient id="Gradiente_sem_nome_232-6" x1="1017.49" y1="389.49" x2="1041.72" y2="389.49" xlink:href="#Gradiente_sem_nome_232"/><linearGradient id="Gradiente_sem_nome_232-7" x1="1003.15" y1="409.48" x2="1030.28" y2="409.48" xlink:href="#Gradiente_sem_nome_232"/><linearGradient id="Gradiente_sem_nome_232-8" x1="1036.56" y1="419.58" x2="1040.37" y2="419.58" xlink:href="#Gradiente_sem_nome_232"/><linearGradient id="Gradiente_sem_nome_232-9" x1="1022.19" y1="431.57" x2="1040.03" y2="431.57" xlink:href="#Gradiente_sem_nome_232"/><linearGradient id="Gradiente_sem_nome_232-10" x1="1017.69" y1="445.36" x2="1061.39" y2="445.36" xlink:href="#Gradiente_sem_nome_232"/><linearGradient id="Gradiente_sem_nome_232-11" x1="1062.32" y1="449" x2="1081" y2="449" xlink:href="#Gradiente_sem_nome_232"/><linearGradient id="Gradiente_sem_nome_232-12" x1="1075.35" y1="387.68" x2="1087.78" y2="387.68" xlink:href="#Gradiente_sem_nome_232"/><linearGradient id="Gradiente_sem_nome_215" x1="1275.3" y1="483.86" x2="1313.2" y2="483.86" gradientUnits="userSpaceOnUse"><stop offset="0" stop-color="#6c98e8"/><stop offset="0.26" stop-color="#5b8be3"/><stop offset="0.72" stop-color="#4278db"/><stop offset="1" stop-color="#3971d8"/></linearGradient><linearGradient id="Gradiente_sem_nome_8" x1="1363.11" y1="468.38" x2="1377.33" y2="493.01" gradientUnits="userSpaceOnUse"><stop offset="0" stop-color="#fda092"/><stop offset="0.15" stop-color="#ef9385" stop-opacity="0.9"/><stop offset="0.44" stop-color="#d77c6e" stop-opacity="0.73"/><stop offset="0.69" stop-color="#c66b5d" stop-opacity="0.6"/><stop offset="0.88" stop-color="#bb6153" stop-opacity="0.53"/><stop offset="1" stop-color="#b75d4f" stop-opacity="0.5"/></linearGradient><linearGradient id="Gradiente_sem_nome_223" x1="1420.17" y1="390.89" x2="1439.13" y2="423.72" gradientUnits="userSpaceOnUse"><stop offset="0" stop-color="#ffa74b"/><stop offset="0.38" stop-color="#e9892e"/><stop offset="0.76" stop-color="#d77017"/><stop offset="1" stop-color="#d0670e"/></linearGradient><linearGradient id="Gradiente_sem_nome_227" x1="1428.85" y1="284.81" x2="1449.14" y2="305.1" gradientUnits="userSpaceOnUse"><stop offset="0" stop-color="#6c98e8"/><stop offset="0.29" stop-color="#4d71bd"/><stop offset="0.6" stop-color="#304d95"/><stop offset="0.85" stop-color="#1f377c"/><stop offset="1" stop-color="#182f73"/></linearGradient><linearGradient id="Gradiente_sem_nome_232-13" x1="1383.91" y1="204.71" x2="1408.95" y2="229.75" xlink:href="#Gradiente_sem_nome_232"/></defs><title>Klonoa-Hat-and-Pencil</title><g class="cls-1"><g id="Camada_2" data-name="Camada 2"><g id="Logo"><g id="Chapeu"><path class="cls-2" d="M1421.19,222.25c-.64,1.77-1.43,3.47-2.26,5.27-.63,1.37-1.29,2.79-1.87,4.24a47.2,47.2,0,0,0-3.36,15.4l0,.73a13.63,13.63,0,0,1-.46,3.68,3.07,3.07,0,0,1-1.86,2.09c-1.2.26-2.64-.85-4.27-2.2a33.36,33.36,0,0,0-9-5.69,23.39,23.39,0,0,0-3.28-1,13.67,13.67,0,0,1-3.61-1.21c-4.6-2.65-12.36-8.26-14.45-11.88-2.19-3.81-.33-9.25,1.32-14.06l.15-.44a64.68,64.68,0,0,1,3-6.9l4-8.31c1.13-2.35,2.41-5,4.53-6.43a15.32,15.32,0,0,1,5.77-1.8,10.16,10.16,0,0,1,2.36-.24,9.89,9.89,0,0,1,2.35.64l1,.35c1.07.34,2.15.59,3.2.82,2.2.5,4.27,1,5.67,2.22a12.37,12.37,0,0,1,2.37,3.49c.26.48.51,1,.78,1.42a24.75,24.75,0,0,0,6.49,7.33l.39.29a7.35,7.35,0,0,1,1.44,1.25,4.57,4.57,0,0,1,.73,1.79C1422.81,215.73,1422.47,218.71,1421.19,222.25Z"/><path class="cls-3" d="M1455.39,479.63c0-.08-.09-.18-.14-.27a266.32,266.32,0,0,1-21.83,32.17c-34.89,43.95-78.46,68.7-122.7,69.72l-2.79,0c-53.89,0-100.79-36.23-125.87-97.46a2,2,0,0,1,.52-2.25l138-123.19-53-29.46-85.75-47.68a2,2,0,0,1-.92-2.4q1-2.82,2-5.59,3.2-8.8,6.87-17.25c11.8-27.19,27.07-51.5,45.1-71.78q7-7.89,14.57-15c21-19.61,43.88-33.05,67.45-39.79-49-28.78-119.45-59.68-194.37-85.16C1112.89,41,1103.36,37.89,1094,35,1032,15.39,979.3,4,949.7,4,908.46,4,798.53,49.11,676.16,116.25c-56,30.72-99.1,68.12-137.15,101.12-7.18,6.23-14,12.11-20.76,17.9a234.51,234.51,0,0,0-17.39,16.41,216.27,216.27,0,0,0-16.67,19.58c-18.36,24.41-29.61,51.3-23.56,73.21,9.74,35.29,20.46,106.1,23.56,139.34,1.28,13.71-.18,27.25-1.36,38.12-.45,4.21-.88,8.17-1.1,11.62a28.2,28.2,0,0,0-.05,3.14,8,8,0,0,0,1.74,5c1.22,1.5,2.43,3.18,3.72,5C497.57,561,515,585.19,597.61,595.35c104.52,12.85,300,23.59,452.38,24.17,20.89.08,41,0,59.89-.35,10.93-.18,21.48-.44,31.58-.77l1.18,0c11.94-.4,23.23-.9,33.78-1.52,90.64-5.3,156.19-20.94,195.22-33.13,46.48-14.51,69.13-28.23,71.7-31.33,2-2.46,3.27-16.2,4.17-26.23.66-7.5,1.3-14.57,2.23-19.06a52.81,52.81,0,0,1,3.7-9.57c2-4.43,4.31-9.46,4.26-12.49C1457.68,483.75,1456.52,481.66,1455.39,479.63Zm-301.45-41.19c-1.87,3.18-3.81,6.46-5.44,9.81a41.62,41.62,0,0,0-3.65,11.6,33.44,33.44,0,0,0,.5,13.75c.26,1,.53,1.94.8,2.91.75,2.71,1.54,5.52,2.16,8.37a10.82,10.82,0,0,1-1.81,9,12.13,12.13,0,0,1-9.05,4.54q-.37,0-.78,0a20.21,20.21,0,0,1-7.2-1.47c-4.12-1.63-7.76-4.56-8.25-8.48a20.17,20.17,0,0,1,.52-6.5c.56-2.95,1.09-5.74-.37-8.95-.73-1.63-1.34-3.36-1.93-5.05-1.61-4.57-3.12-8.88-6.86-10.4-2.4-1-5-1.74-7.42-2.48-5.09-1.54-9.9-3-12.87-6a6.88,6.88,0,0,0-3-1.74,4.39,4.39,0,0,0-3.14.12,6.79,6.79,0,0,0-1.92,1.76c-1.13,1.33-2.3,2.65-3.46,4-4.24,4.81-8.62,9.79-11.74,15.33a8.39,8.39,0,0,1-3.2,3.61,4.89,4.89,0,0,1-4.4.26,5.68,5.68,0,0,1-2.93-4.15c-.73-3.38.88-6.51,2.15-8.56a29.25,29.25,0,0,1,6.35-6.68,31.44,31.44,0,0,0,4.93-4.83c2.52-3.38,3.85-8.69,3.56-14.22-.07-1.38-.67-2.94-1.52-3.05s-2.12,1.17-2.72,1.79a207.12,207.12,0,0,1-45.76,35.2c-2,1.14-4.17,2.22-6.64,2a6,6,0,0,1-4.33-2.6,4.56,4.56,0,0,1-.63-3.91,6.77,6.77,0,0,1,3-3.42c7.77-5.33,15.61-11,23.32-16.84l2.1-1.58a124,124,0,0,0,10.43-8.34c1.19-1.18,2.44-2.59,2.68-4.1a2.61,2.61,0,0,0-.51-1.89,1.13,1.13,0,0,0-.74-.47c-.78-.06-1.7.95-2.18,1.91-.26.51-.48,1.07-.72,1.66a14.22,14.22,0,0,1-1.79,3.51c-2.14,2.82-5.55,3.72-8,4a36.35,36.35,0,0,1-4.4.12c-1.13,0-2.2,0-3.26,0a40.92,40.92,0,0,0-6.18,1,53.63,53.63,0,0,1-5.67,1,5.85,5.85,0,0,1-4.61-1.36,3.26,3.26,0,0,1-.92-2.73c.3-2.28,2.63-3.1,3.4-3.37,7.29-2.55,12.93-5,15.74-6.69a8.12,8.12,0,0,1-1.39-.83c-2.38-1.94-1.76-5.43.08-7.88.16-.21.32-.43.49-.64.79-1,1.62-2.08,1.5-2.86a4,4,0,0,0-1.89-2.39,10.06,10.06,0,0,0-3.82.22,27.92,27.92,0,0,0-6.82,2.34c-4,1.82-8.63,3.87-17.83,3.11-.32,0-.67,0-1-.05-1.83-.07-5.24-.18-5.71-3.42-.36-2.45,1.64-4.14,2.49-4.86a28,28,0,0,1,10.56-6c3.73-1.05,8.81-.36,13.3.25,2.55.35,6.24.85,7.71.53a35.41,35.41,0,0,0-5.53-1.21c-1.42-.24-2.89-.48-4.12-.79a19.41,19.41,0,0,1-6.12-2.28,8,8,0,0,1-3.91-6.49A12.71,12.71,0,0,1,1019,383c5.8-3.78,12.4-4.85,17.66-2.87.37.14.74.3,1.11.46.94.41,1.9.83,2.4.62a2.9,2.9,0,0,0,1-1.25,37.13,37.13,0,0,0,2.37-5.86c1.37-4,2.77-8.06,6.3-10.84,2.62-2.06,6.35-2.1,9.65-2.14,1.05,0,2.05,0,2.91-.1a4.65,4.65,0,0,0,2.39-.61,8.44,8.44,0,0,0,.67-2.11c.06-.58-.56-1.81-3.9-4.32a19,19,0,0,0-5.81-2.53l-11.29-3.54c-1.75-.54-5-1.56-6.27-4.44a5.9,5.9,0,0,1,.42-5.38,6.39,6.39,0,0,1,4.76-3.26c5.6-.62,8.15,1.34,10,2.76a8.92,8.92,0,0,0,1.51,1,31.22,31.22,0,0,0,5.45,2,30,30,0,0,1,7.52,3.15,17.34,17.34,0,0,0,4.1,1.32c.69.17,1.36.33,2,.51a7.79,7.79,0,0,0,3.12.26,12.47,12.47,0,0,0,6.61-3.33,27,27,0,0,0,3.71-4.11c3.48-4.71,8.25-11.16,15.1-13.54,5.59-1.94,11.11-.47,16.45,1l.54.14c5,1.34,9.74,2.49,14.06.56a6.3,6.3,0,0,0,1.93-1.83c1.08-1.34,2.55-3.2,5.15-3.13a9,9,0,0,1,5.28,2.33,13.15,13.15,0,0,1,4.39,6.54c.65,2.94.21,6.15-1.41,10.08-.23.54-.55,1.15-.94,1.87-.48.9-1.61,3-1.56,3.69a4.71,4.71,0,0,0,.74,1.37c1.09,1.62,4.26,2.2,6.91,2.06,1.31-.06,2.65-1,4.07-1.89,1.87-1.24,4-2.64,6.65-2.52,4.46.21,7.32,4.72,7.2,8.8s-1.7,6.65-5.45,8.73a13.31,13.31,0,0,0-5.34,6.68c-1.27,3.55.44,8.65,1.95,13.16.61,1.82,1.19,3.54,1.6,5.18,2.95,11.89,1.7,24.47-3.72,37.38a72.61,72.61,0,0,1-3.19,6.58C1156.59,433.94,1155.26,436.21,1153.94,438.44Z"/><path class="cls-3" d="M1333.37,227.91c0,1.11,0,2.24-.1,3.37-.05.86-.11,1.72-.2,2.58-.11,1.08-.24,2.14-.41,3.19a58.16,58.16,0,0,1-1.54,7.16,50.88,50.88,0,0,1-9.1,18.29,27.74,27.74,0,0,1-11.27,8.75,17.82,17.82,0,0,1-5,1.14q-.66.06-1.29.06a16.53,16.53,0,0,1-12.35-5.89,30,30,0,0,1-5.87-10.24A41.22,41.22,0,0,1,1285,252a50.86,50.86,0,0,1-1.29-10.56c0-.34,0-.68,0-1a58.27,58.27,0,0,1,.3-6.14c1.7-16.87,10.1-31.24,20.3-36.47a18,18,0,0,1,8.28-2.12,16.53,16.53,0,0,1,12.35,5.89c5,5.51,7.93,14,8.38,23.73C1333.35,226.15,1333.37,227,1333.37,227.91Z"/><path class="cls-4" d="M1453.78,420.4a20.89,20.89,0,0,1-3.83,4.5,23.21,23.21,0,0,0-4.67,5.68,22.79,22.79,0,0,0-1.8,5.33c-.28,1.1-.54,2.14-.9,3.13-.73,2-2.31,4.08-4.18,4.12a7.86,7.86,0,0,1-3.59-1.35l-6.61-3.74a50.4,50.4,0,0,1-4.68-2.86,26.18,26.18,0,0,1-4.44-4,13.28,13.28,0,0,1-3-5,16.7,16.7,0,0,1-.43-4.31,89,89,0,0,1,1.23-15.37,20.3,20.3,0,0,1,1.89-6.44,24.23,24.23,0,0,1,2.44-3.45,18.39,18.39,0,0,0,4.48-8.53,24.83,24.83,0,0,1,.83-2.64,5,5,0,0,1,3.18-3.16l.23,0a6.41,6.41,0,0,1,3.21,1.47A70.48,70.48,0,0,0,1445,394.7l.49.35a18.36,18.36,0,0,1,2.92,2.43,18,18,0,0,1,2.48,4.11,43.6,43.6,0,0,1,3.82,9.64A13.15,13.15,0,0,1,1453.78,420.4Z"/><path class="cls-3" d="M1105.87,623.23q-4.24,8.75-8.85,17.31a413.2,413.2,0,0,1-27.74,44.75,355.39,355.39,0,0,1-49.18,55.62A360.29,360.29,0,0,1,960.35,785a444.38,444.38,0,0,1-67.07,32.19q-6,2.34-12.15,4.5l-3.31,1.17-4,1.38c-2.14.73-4.29,1.45-6.44,2.14q-13.21,4.3-26.62,8-1.86.53-3.72,1l-2.85.77q-6,1.62-12.06,3.13l-9,2.27-9.11,2c-6.07,1.33-12.12,2.79-18.24,3.91s-12.21,2.44-18.33,3.56L749,854.28q-36.87,5.94-74,10c-6.18.7-12.39,1.27-18.58,1.91l-9.3.93-9.31.82-18.62,1.62-18.63,1.42c-6.21.49-12.43.91-18.65,1.31l-18.65,1.23c-12.44.71-24.88,1.52-37.33,2.12l-18.67,1-18.68.87c-6.23.28-12.46.62-18.66.74l-4.65.13c-1.55,0-3.1.08-4.66.06l-9.31,0c-3.1,0-6.21-.15-9.31-.22s-6.21-.15-9.31-.33c-6.21-.38-12.41-.63-18.61-1.21l-9.29-.76-9.27-1-4.64-.48-4.63-.57-9.25-1.16c-24.66-3.3-49.15-7.82-73.47-13.12a1147.62,1147.62,0,0,1-143.31-41.73q-17.56-6.36-34.83-13.43-8.58-3.52-17.06-7.24c-2.53-1.11-5-2.24-7.55-3.39q-4.77-2.17-9.48-4.45c-5.61-2.67-11.09-5.55-16.52-8.53a92.23,92.23,0,0,0-17.47-7.7A63.17,63.17,0,0,0,47.81,771a53.27,53.27,0,0,0-9.7-.36,63,63,0,0,0-18.79,4.17A.89.89,0,0,0,19,775a1,1,0,0,0-.3,1,0,0,0,0,0,0,0,1,1,0,0,0,.52.63c3.39,3.91,23.68,24,80.53,21.08a117.64,117.64,0,0,1-32.76,2c-3.24-.16-6.44-.65-9.66-1-3.19-.56-6.4-1-9.54-1.8a112.37,112.37,0,0,1-18.48-5.73l-4.38-2c-1.42-.72-2.82-1.47-4.22-2.23l-2-1.25a16.81,16.81,0,0,1-1.93-1.32L15,783a11.59,11.59,0,0,1-1.48-1.49,38.14,38.14,0,0,1-4.84-7.88,51.54,51.54,0,0,1-3.25-8.84,25.1,25.1,0,0,1-1-8.89,7,7,0,0,1,1.2-3.39,0,0,0,0,0,0,0,5.36,5.36,0,0,1,.51-.55,3.69,3.69,0,0,1,.62-.41l.2-.11.14-.08.55-.23,1.14-.47,9.07-3.77c1.79-.74,3.59-1.44,5.4-2.13,1.26-.48,2.51-1,3.76-1.46,6.08-2.45,12.28-4.62,18.43-6.9l9.29-3.26c3.1-1.07,6.2-2.17,9.32-3.18,6.24-2.07,12.47-4.16,18.74-6.12l9.4-3,9.43-2.88c25.15-7.66,50.49-14.78,75.87-21.72,50.78-13.88,101.8-27,152.48-41.42,25.33-7.28,50.6-14.84,75.52-23.54,12.47-4.33,24.81-9.05,37-14.25l9.07-4,8.94-4.37c1.47-.76,2.89-1.64,4.34-2.45s2.84-1.73,4.21-2.67,2.66-2,4-3.1A49.62,49.62,0,0,0,476.7,597l0,0,.09-.1a1,1,0,0,0-1.2-1.46c-2.76,1.69-5.48,3.46-8.29,5.11s-5.71,3.13-8.59,4.64l-8.81,4.3-9,4c-12.06,5.13-24.32,9.8-36.73,14.1-24.08,8.37-48.55,15.7-73.09,22.74a457.35,457.35,0,0,0,60.54-30.6c31.69-19.23,61.33-43.13,90.55-73,.55.74,1.1,1.5,1.67,2.29,3.73,5.17,8.34,11.53,16.24,18.08l1.58,1.28c15.26,12,42.1,24.44,95.4,31h0c107.63,13.22,311.45,24.22,465.74,24.22q9.92,0,19.55-.07Q1094.41,623.4,1105.87,623.23Z"/><path class="cls-3" d="M99.77,797.71c-56.85,2.91-77.14-17.17-80.53-21.08a1,1,0,0,0,.68.07l.11,0a91.71,91.71,0,0,1,9.09-2.08,60.39,60.39,0,0,1,9.16-.8l2.28,0,2.28.15c.76,0,1.51.12,2.26.22s1.51.17,2.25.31c1.49.28,3,.55,4.44.95s2.92.81,4.37,1.24a96.29,96.29,0,0,1,16.62,7.58c5.5,3,11.07,5.95,16.72,8.65Q94.6,795.37,99.77,797.71Z"/><path class="cls-5" d="M1391.54,497.69a11.73,11.73,0,0,1-3.62,3.23l-.93.65a20.11,20.11,0,0,0-5.09,6.08c-1.43,2.25-2.77,4.38-4.79,5.33a8.12,8.12,0,0,1-4.1.22,23.93,23.93,0,0,0-2.56-.17c-.39,0-.79,0-1.19.06-2.2.23-5,.33-7-1-1.44-.93-2.54-2.58-3.58-5.35a.16.16,0,0,0,0,0,72.87,72.87,0,0,1-2.23-7.52l-2.42-9.33a25.89,25.89,0,0,1-1.18-7.14c.11-3.36,1.63-6.62,3.18-9.67a25.22,25.22,0,0,1,2.9-4.74c2.22-2.65,5.48-4.38,8.63-6a10.72,10.72,0,0,1,2.36-1,10.16,10.16,0,0,1,2.47-.16,19.75,19.75,0,0,0,2.29-.06,9.28,9.28,0,0,0,4.54-2.21c1-.75,1.94-1.45,2.63-1.33,1.07.19,3.15,4.24,3.84,5.57.4.79.75,1.46,1.08,2a24.91,24.91,0,0,1,2.37,6.65c.17.67.34,1.33.53,2a14.75,14.75,0,0,1,.82,6.85c0,.48-.07,1-.09,1.46,0,.32,0,.65,0,1a25.19,25.19,0,0,0,1,6.05c.19.74.38,1.48.54,2.23C1392.57,494.12,1392.43,496.21,1391.54,497.69Z"/><path class="cls-3" d="M1316.29,501.77c-.81,1.86-2.55,3.48-5.32,5l-.28.15c-.58.31-1.21.65-1.81,1.05a6.53,6.53,0,0,0-2.91,3.52,6.38,6.38,0,0,0-.24,1.07,3.39,3.39,0,0,1-.15.64c-.15.32-1.09.58-2.55.44a32.28,32.28,0,0,1-8.92-2.19c-.77-.31-1.53-.64-2.28-1a40,40,0,0,0-4.49-1.79c-1-.29-1.9-.51-2.81-.72s-2-.46-2.87-.76a14.91,14.91,0,0,1-9.64-10.75,18.85,18.85,0,0,1-.31-5.62c.38-4.89,2.09-9.71,3.75-14.37a32.15,32.15,0,0,1,2.78-6.33,32.53,32.53,0,0,1,2.64-3.44,34,34,0,0,0,3.05-4c.23-.37.45-.77.68-1.17.73-1.3,1.49-2.65,2.31-2.74,1-.11,2.51-.19,3.91-.19a15.77,15.77,0,0,1,3,.21,9.42,9.42,0,0,1,3.65,2.29,23.93,23.93,0,0,0,2.47,1.88,47.14,47.14,0,0,0,5.34,2.81c1,.49,2,.95,3,1.46,3,1.6,4.95,3.24,6,5.18a9,9,0,0,1,.56,1.22,22.92,22.92,0,0,1,1.09,5.66c.46,4.61.79,9.28,1,13.92,0,.81.07,1.61.09,2.42A14.58,14.58,0,0,1,1316.29,501.77Z"/><path class="cls-6" d="M1459.51,308c-.52,3.26-2.23,6.34-3.88,9.31a29.27,29.27,0,0,1-3.06,4.78,27.52,27.52,0,0,1-4.35,3.84c-1.69,1.28-3.35,2.44-5,2.6a11,11,0,0,1-3.28-.41c-3-.68-5.92-1.46-7.43-3.41a12.48,12.48,0,0,1-1.81-4.68l-.21-.83c-.76-2.93-1.8-5.79-2.81-8.56-1.57-4.31-3-8.39-3.56-12.69a27.65,27.65,0,0,1,2.25-14.61,10.35,10.35,0,0,1,3.39-4.59c1.85-1.24,4.34-1.31,7-1.31h1.37l2.14,0c1,0,2,0,3.07,0a32.35,32.35,0,0,0,7.49-.62,4.75,4.75,0,0,0,1.55-.8,3,3,0,0,1,.3-.2c.43-.15,1.2.35,1.55,1a9.27,9.27,0,0,1,.7,3.53l0,.33a64.89,64.89,0,0,0,1.85,11.08c.29,1.12.62,2.25.94,3.38C1459,299.67,1460.19,303.87,1459.51,308Z"/><path class="cls-2" d="M1030.28,407.52l-.5.09a31.36,31.36,0,0,0-7.75,2.64c-4,1.77-7.68,3.44-15.87,2.76-.38,0-.79-.05-1.21-.06a12.62,12.62,0,0,1-1.8-.15,4.77,4.77,0,0,1,1-1.07,24.23,24.23,0,0,1,9.06-5.18c2.94-.82,7.58-.19,11.68.36C1026.87,407.18,1028.67,407.42,1030.28,407.52Z"/><path class="cls-7" d="M1439.51,168.15A130,130,0,0,0,1401,139.53a112.76,112.76,0,0,0-51.68-11c-67.4,1.54-133.17,61.77-164.06,150.06l10.64,5.91L1325,356.25a2,2,0,0,1,.36,3.24L1186.3,483.61c22.83,54.72,63.53,88.66,110.78,93.15a112.68,112.68,0,0,0,13.54.49c89.1-2,170.18-104.46,180.75-228.31C1497.52,276.83,1478.14,209.25,1439.51,168.15ZM1319.95,503.38c-1.18,2.7-3.5,4.95-7.08,6.89l-.28.15c-1.25.67-2.53,1.36-2.8,2.24a3.38,3.38,0,0,0-.12.57,5.89,5.89,0,0,1-.47,1.65c-.51,1.09-1.86,2.78-5.36,2.78-.37,0-.77,0-1.19-.06a36.18,36.18,0,0,1-10-2.46c-.81-.33-1.61-.68-2.41-1a37,37,0,0,0-4-1.62c-.81-.25-1.65-.44-2.53-.65a31.78,31.78,0,0,1-3.24-.86,19,19,0,0,1-12.28-13.68,23,23,0,0,1-.39-6.79c.42-5.43,2.23-10.5,4-15.4a27.32,27.32,0,0,1,6.11-11,30.42,30.42,0,0,0,2.71-3.55c.21-.33.4-.69.6-1,1.06-1.88,2.5-4.45,5.37-4.76a33.61,33.61,0,0,1,8.17.09,9,9,0,0,1,2.95,1.28A24.62,24.62,0,0,1,1300,458a20.58,20.58,0,0,0,2,1.58,41.65,41.65,0,0,0,4.89,2.55c1,.49,2.12,1,3.17,1.55,3.75,2,6.19,4.12,7.67,6.77s1.84,5.47,2.14,8.43c.55,5.51.91,11.1,1.06,16.63C1321.08,498.21,1321.06,500.87,1319.95,503.38Zm-30.77-234.14c-7.16-7.91-10.58-21.13-9.16-35.38,2.34-23.26,16.94-42.19,32.56-42.19a19.91,19.91,0,0,1,14.07,6l.19.17c.36.35.71.71,1,1.09,7.16,7.91,10.58,21.13,9.16,35.38-2.34,23.26-16.94,42.19-32.56,42.19a19.72,19.72,0,0,1-13.27-5.2A21.46,21.46,0,0,1,1289.18,269.24ZM1395,499.75a15.12,15.12,0,0,1-4.79,4.47l-.88.61a16.91,16.91,0,0,0-4,5c-1.67,2.64-3.39,5.36-6.45,6.82a8.59,8.59,0,0,1-3.7.74c-.87,0-1.71-.08-2.52-.16a14.09,14.09,0,0,0-2.93-.11c-2.86.29-6.53.38-9.57-1.59-2.86-1.85-4.31-5.06-5.16-7.3a79,79,0,0,1-2.36-8l-2.43-9.33a29.46,29.46,0,0,1-1.29-8.26c.12-4.19,1.93-8.06,3.61-11.36a28.68,28.68,0,0,1,3.39-5.49c2.72-3.26,6.49-5.26,9.83-7a13.42,13.42,0,0,1,3.3-1.38,14,14,0,0,1,3.45-.27,15.58,15.58,0,0,0,1.83,0,6.42,6.42,0,0,0,2.55-1.43c1.49-1.11,3.33-2.48,5.71-2.08,3,.53,5.07,4.5,6.71,7.69.36.69.7,1.35,1,1.79a28,28,0,0,1,2.81,7.7l.51,1.92a23.12,23.12,0,0,1,1.06,5.49,22.32,22.32,0,0,1-.1,2.74c-.06.73-.11,1.42-.1,2.08a22.46,22.46,0,0,0,.91,5.12c.2.79.41,1.59.58,2.38C1396.7,494.31,1396.41,497.35,1395,499.75Zm9.55-245.22a29.74,29.74,0,0,0-8-5,21.17,21.17,0,0,0-2.74-.79,16.71,16.71,0,0,1-4.67-1.64,81.24,81.24,0,0,1-8.14-5.5c-3.18-2.45-6.3-5.29-7.77-7.84-3.1-5.38-.83-12,1-17.35l.15-.45a69.13,69.13,0,0,1,3.16-7.33l4-8.31c1.28-2.68,2.88-6,5.91-8a18.45,18.45,0,0,1,7.29-2.41,13,13,0,0,1,3.38-.28,13.41,13.41,0,0,1,3.37.85c.3.11.61.22.91.31.9.29,1.85.51,2.86.73,2.6.59,5.28,1.19,7.46,3.14a15.54,15.54,0,0,1,3.23,4.59l.71,1.3a20.71,20.71,0,0,0,5.43,6.13l.37.27a10.42,10.42,0,0,1,2.23,2,8.47,8.47,0,0,1,1.46,3.35c.76,3.37.37,7.08-1.18,11.36-.7,1.94-1.56,3.79-2.39,5.59-.61,1.33-1.25,2.7-1.79,4.06a42.89,42.89,0,0,0-3.08,14.09l0,.69a16.69,16.69,0,0,1-.66,4.78,6.84,6.84,0,0,1-4.8,4.74,5.69,5.69,0,0,1-1.21.14C1408.31,257.7,1406.07,255.82,1404.52,254.53Zm52.75,167.82a24,24,0,0,1-4.52,5.4,20.22,20.22,0,0,0-3.93,4.69,19.86,19.86,0,0,0-1.46,4.43,35.81,35.81,0,0,1-1,3.54c-1.17,3.2-3.85,6.66-7.85,6.75h-.14a11.37,11.37,0,0,1-5.5-1.87l-6.62-3.74a54.78,54.78,0,0,1-5-3.08,30.53,30.53,0,0,1-5.12-4.6,17,17,0,0,1-3.85-6.54,20.55,20.55,0,0,1-.58-5.37,92.88,92.88,0,0,1,1.28-16.06,24.52,24.52,0,0,1,2.32-7.69,26.6,26.6,0,0,1,2.84-4,21,21,0,0,0,2.71-4,19.33,19.33,0,0,0,1-3.12,30,30,0,0,1,1-3.07,9,9,0,0,1,6-5.55c2.95-.73,6.5,1.65,7.42,2.71a66.53,66.53,0,0,0,11.17,10.3l.48.34a22,22,0,0,1,3.56,3,21.49,21.49,0,0,1,3.09,5,46.8,46.8,0,0,1,4.14,10.54A17.09,17.09,0,0,1,1457.27,422.35Zm6.19-113.69c-.64,4-2.6,7.49-4.33,10.61a31.74,31.74,0,0,1-3.51,5.43,31.07,31.07,0,0,1-5,4.44c-2.08,1.58-4.34,3.14-7.09,3.39a7.32,7.32,0,0,1-.81,0,16.83,16.83,0,0,1-3.7-.53c-2.87-.64-7.2-1.6-9.72-4.86a15.93,15.93,0,0,1-2.53-6.16l-.2-.79c-.72-2.75-1.73-5.52-2.7-8.2-1.58-4.34-3.21-8.83-3.77-13.59a31.57,31.57,0,0,1,2.57-16.72,14.1,14.1,0,0,1,4.81-6.27c3-2,6.62-2,9.78-2h.82l2.21,0c2.92,0,7.33.11,9.43-.44l.31-.21a5.11,5.11,0,0,1,1.34-.74c2.62-.88,5.23.84,6.34,2.91a12.39,12.39,0,0,1,1.17,5.13l0,.32a60,60,0,0,0,1.74,10.39c.28,1.09.59,2.18.9,3.28C1462.89,298.79,1464.28,303.63,1463.46,308.66Z"/><path class="cls-2" d="M1168,353.77a11.09,11.09,0,0,1-.12,1.36c-.26,1.62-1.06,2.76-3.28,4a17.09,17.09,0,0,0-7.16,8.82c-1.74,4.85.21,10.66,1.93,15.78.59,1.75,1.14,3.39,1.51,4.87,2.74,11,1.55,22.78-3.52,34.88a109.39,109.39,0,0,1-6.86,12.93c-1.92,3.24-3.89,6.6-5.6,10.09-4.38,9-5.69,19.76-3.42,28.15l.81,2.93c.75,2.66,1.51,5.42,2.12,8.16a6.81,6.81,0,0,1-1.1,5.72,8.11,8.11,0,0,1-6.09,3c-4.68.26-11.6-2.91-12-6.43a17.52,17.52,0,0,1,.48-5.25c.63-3.27,1.34-7-.64-11.35-.67-1.47-1.22-3-1.81-4.72-1.74-5-3.72-10.59-9.14-12.78-2.56-1-5.2-1.84-7.75-2.61-4.6-1.39-8.93-2.7-11.19-5a10.79,10.79,0,0,0-7.35-3.15,7.74,7.74,0,0,0-3.35.74,10,10,0,0,0-3.24,2.77c-1.12,1.31-2.27,2.62-3.42,3.92-2.44,2.77-4.92,5.59-7.22,8.57a62.47,62.47,0,0,0-5,7.44,5.2,5.2,0,0,1-1.56,2,1.12,1.12,0,0,1-.85.18,2,2,0,0,1-.72-1.36c-.32-1.48.22-3.32,1.64-5.62a26,26,0,0,1,5.54-5.73,35.12,35.12,0,0,0,5.55-5.49c3.11-4.16,4.69-10.29,4.35-16.82a8.9,8.9,0,0,0-1.52-4.63,5,5,0,0,0-3.45-2.17c-2.85-.39-5,1.78-6.13,2.95a202.26,202.26,0,0,1-35,28.54q-4.84,3.14-9.87,6c-1.51.86-3,1.63-4.29,1.49a2,2,0,0,1-1.38-.84.66.66,0,0,1-.14-.5c.14-.44.94-1,1.42-1.32,7.81-5.36,15.71-11.07,23.47-17l2.08-1.56a123.6,123.6,0,0,0,10.84-8.7c1.66-1.63,3.41-3.67,3.82-6.34a6.52,6.52,0,0,0-1.33-5,5.07,5.07,0,0,0-3.57-2c-2.82-.2-5,2-6.05,4.1-.34.67-.61,1.34-.87,2a11,11,0,0,1-1.26,2.57c-1.34,1.76-3.87,2.26-5.27,2.41a31.67,31.67,0,0,1-3.93.1c-1.16,0-2.36,0-3.57.05a44.8,44.8,0,0,0-6.78,1.13c-1.55.34-3,.66-4.52.87,5.83-2.08,13-4.91,16.39-7.32a4.33,4.33,0,0,0,1.45-1.57,0,0,0,0,0,0,0,2.8,2.8,0,0,0,.29-1.47,1.36,1.36,0,0,0,0-.29c-.29-1.62-1.89-2.43-3-3a6.17,6.17,0,0,1-.68-.37c-.22-.17,0-1.32.75-2.37.14-.2.29-.39.45-.59,1.13-1.45,2.51-3.22,2.33-5.51a1.53,1.53,0,0,0,0-.3.45.45,0,0,0,0-.1c-.34-2.24-2.53-5.15-5-5.7-.27-.06-.55-.1-.82-.14a4.63,4.63,0,0,0,2.09-1.11,3.87,3.87,0,0,0,1.07-3.32c-.35-3-4.46-3.72-9.21-4.52-1.41-.24-2.75-.46-3.83-.73a16.1,16.1,0,0,1-4.91-1.76h0a4.1,4.1,0,0,1-2.07-3.12,8.8,8.8,0,0,1,3.72-6.37c3.66-2.38,9.27-4.28,14.07-2.48l.93.39c1.54.67,3.45,1.5,5.51.65a6.32,6.32,0,0,0,3-3,38,38,0,0,0,2.43-5.81c.07-.23.15-.46.23-.68,1-2.84,1.9-5.56,3.56-7.58a9,9,0,0,1,1.42-1.41c1.56-1.22,4.57-1.26,7.23-1.29,1.13,0,2.2,0,3.22-.12a14.83,14.83,0,0,0,2.21-.33h0a5.6,5.6,0,0,0,2.67-1.47,9.56,9.56,0,0,0,1.78-4.47c.37-3.53-3.43-6.4-5.47-7.94a22.62,22.62,0,0,0-7-3.15l-11.29-3.53c-1.58-.5-3.31-1.12-3.8-2.24a2,2,0,0,1,.23-1.77,2.44,2.44,0,0,1,1.73-1.28,8.22,8.22,0,0,1,7.14,2,12.56,12.56,0,0,0,2.26,1.47,35.22,35.22,0,0,0,6,2.22,26,26,0,0,1,6.65,2.8,20.64,20.64,0,0,0,5.13,1.71c.63.15,1.24.3,1.8.46a12.3,12.3,0,0,0,8.81-.78.34.34,0,0,0,.11-.05,24.23,24.23,0,0,0,8.83-7.81c4.12-5.56,8-10.32,13.21-12.14,4.42-1.54,9.12-.28,14.1,1s9.8,2.62,14.74,1.37l.16,0a14.77,14.77,0,0,0,2.36-.83l.17-.09a9.6,9.6,0,0,0,3.23-2.87c.93-1.14,1.4-1.65,2-1.65h0c1.87,0,5.3,3.41,5.82,5.74a7.72,7.72,0,0,1,.18,2,15.58,15.58,0,0,1-1.38,5.68c-.15.35-.45.91-.77,1.51-1.13,2.12-2.41,4.52-1.92,6.48a8.35,8.35,0,0,0,1.32,2.71A6.43,6.43,0,0,0,1145,351l0,0c2.94,2.6,7.71,2.59,9.27,2.51,2.4-.13,4.36-1.42,6.08-2.56,1.55-1,2.88-1.91,4.25-1.85C1166.6,349.18,1168.06,351.68,1168,353.77Z"/><path d="M1164.8,345.09c-2.67-.12-4.78,1.28-6.65,2.52-1.42.94-2.76,1.83-4.07,1.9-2.65.14-5.81-.45-6.91-2.06a5,5,0,0,1-.74-1.37c0-.67,1.08-2.79,1.56-3.69.38-.72.71-1.33.93-1.87,1.62-3.93,2.07-7.14,1.41-10.08-.86-3.85-5.59-8.8-9.67-8.86-2.6-.07-4.07,1.79-5.15,3.12a6.25,6.25,0,0,1-1.92,1.83c-4.48,2-9.4.69-14.6-.7s-10.87-2.9-16.45-1c-6.86,2.38-11.63,8.83-15.11,13.54-2.51,3.4-7.6,8.86-13.43,7.17-.61-.18-1.28-.34-2-.5a17.44,17.44,0,0,1-4.1-1.32,29.49,29.49,0,0,0-7.52-3.15,31.74,31.74,0,0,1-5.45-2,8.88,8.88,0,0,1-1.52-1c-1.86-1.43-4.41-3.38-10-2.76a6.41,6.41,0,0,0-4.76,3.26,5.92,5.92,0,0,0-.42,5.38c1.27,2.88,4.52,3.9,6.27,4.45l11.29,3.53a19.12,19.12,0,0,1,5.81,2.53c3.34,2.52,4,3.74,3.91,4.33a8.34,8.34,0,0,1-.67,2.1,4.56,4.56,0,0,1-2.39.61c-.86.08-1.86.09-2.91.1-3.29,0-7,.08-9.65,2.14-3.53,2.77-4.94,6.87-6.3,10.84a37.25,37.25,0,0,1-2.38,5.86,2.84,2.84,0,0,1-1,1.25c-.5.2-1.47-.21-2.4-.62-.37-.16-.75-.32-1.12-.46-5.26-2-11.86-.91-17.66,2.87a12.7,12.7,0,0,0-5.53,9.72,7.93,7.93,0,0,0,3.91,6.49,19.56,19.56,0,0,0,6.12,2.28c1.23.3,2.7.55,4.12.79a35.87,35.87,0,0,1,5.53,1.21c-1.47.31-5.16-.19-7.72-.54-4.48-.61-9.56-1.3-13.3-.25a28,28,0,0,0-10.56,6c-.85.72-2.85,2.4-2.49,4.86.47,3.24,3.88,3.36,5.71,3.42.35,0,.69,0,1,0,9.21.76,13.79-1.29,17.84-3.1a27.89,27.89,0,0,1,6.82-2.35,10.22,10.22,0,0,1,3.82-.22,4,4,0,0,1,1.88,2.39c.12.78-.7,1.83-1.5,2.86l-.49.64c-1.84,2.45-2.46,5.94-.08,7.88a7.74,7.74,0,0,0,1.39.83c-2.81,1.74-8.45,4.14-15.74,6.7-.77.27-3.1,1.09-3.4,3.37a3.24,3.24,0,0,0,.92,2.73,5.83,5.83,0,0,0,4.6,1.35,53.5,53.5,0,0,0,5.68-1,41.47,41.47,0,0,1,6.18-1c1.06-.07,2.13-.06,3.26,0a37.94,37.94,0,0,0,4.41-.12c2.49-.26,5.9-1.16,8-4a14.37,14.37,0,0,0,1.8-3.51c.24-.59.46-1.15.71-1.66.49-1,1.41-2,2.18-1.91a1.12,1.12,0,0,1,.74.46,2.59,2.59,0,0,1,.5,1.89c-.23,1.52-1.48,2.92-2.68,4.1a124.84,124.84,0,0,1-10.43,8.34l-2.1,1.58h0c-7.71,5.84-15.55,11.51-23.32,16.84a6.75,6.75,0,0,0-3,3.42,4.53,4.53,0,0,0,.63,3.91,6,6,0,0,0,4.33,2.6c2.47.23,4.64-.85,6.64-2a207,207,0,0,0,45.76-35.2c.6-.62,1.85-1.9,2.72-1.79s1.45,1.68,1.52,3.06c.29,5.53-1,10.84-3.56,14.21a31.27,31.27,0,0,1-4.93,4.83,29.4,29.4,0,0,0-6.35,6.68c-1.27,2.06-2.87,5.18-2.15,8.57a5.66,5.66,0,0,0,2.93,4.14,4.88,4.88,0,0,0,4.4-.25,8.26,8.26,0,0,0,3.2-3.62c3.13-5.54,7.51-10.51,11.74-15.33,1.16-1.32,2.33-2.64,3.46-4a6.72,6.72,0,0,1,1.92-1.76c1.92-.92,4.63.1,6.14,1.62,3,3,7.78,4.45,12.87,6,2.47.75,5,1.52,7.42,2.49,3.74,1.51,5.26,5.83,6.86,10.4.59,1.68,1.2,3.42,1.94,5,1.46,3.21.93,6,.36,8.95a20.43,20.43,0,0,0-.52,6.5c.77,6.22,9.51,9.95,15.45,9.95l.78,0a12.1,12.1,0,0,0,9-4.55,10.81,10.81,0,0,0,1.82-9c-.62-2.85-1.41-5.66-2.17-8.37-.27-1-.54-1.93-.8-2.9-2-7.49-.83-17.2,3.15-25.35,1.63-3.35,3.57-6.64,5.45-9.82A112.11,112.11,0,0,0,1161,425c5.42-12.91,6.67-25.49,3.71-37.38-.41-1.64-1-3.36-1.6-5.18-1.51-4.51-3.23-9.61-2-13.16a13.29,13.29,0,0,1,5.34-6.68c3.75-2.08,5.33-4.61,5.45-8.73S1169.26,345.3,1164.8,345.09Zm-135,62.52a31.52,31.52,0,0,0-7.75,2.63c-4,1.77-7.68,3.44-15.87,2.77-.38,0-.79,0-1.2-.06a11.68,11.68,0,0,1-1.81-.15,5,5,0,0,1,1-1.07,24.17,24.17,0,0,1,9.06-5.18c2.94-.82,7.58-.19,11.68.36,2,.27,3.76.51,5.36.61Zm134.83-48.48a17.12,17.12,0,0,0-7.16,8.82c-1.74,4.85.21,10.66,1.93,15.78.58,1.74,1.14,3.39,1.5,4.87,2.74,11,1.56,22.77-3.52,34.87a109,109,0,0,1-6.86,12.93c-1.91,3.25-3.89,6.6-5.59,10.09-4.38,9-5.69,19.77-3.42,28.15q.4,1.47.81,2.93c.74,2.66,1.51,5.42,2.11,8.16a6.79,6.79,0,0,1-1.1,5.72,8.13,8.13,0,0,1-6.09,3c-4.67.25-11.59-2.91-12-6.43a17.22,17.22,0,0,1,.48-5.26c.63-3.27,1.34-7-.65-11.35-.66-1.46-1.22-3-1.81-4.72-1.74-5-3.72-10.59-9.14-12.79-2.56-1-5.2-1.83-7.76-2.61-4.59-1.39-8.93-2.7-11.19-5a10.78,10.78,0,0,0-7.35-3.15,7.72,7.72,0,0,0-3.36.74,10,10,0,0,0-3.23,2.76c-1.12,1.32-2.27,2.62-3.42,3.93-4.37,5-8.9,10.1-12.23,16a5.25,5.25,0,0,1-1.56,2,1.13,1.13,0,0,1-.85.18,2,2,0,0,1-.72-1.36c-.32-1.48.22-3.32,1.64-5.62a26.06,26.06,0,0,1,5.54-5.73,34.75,34.75,0,0,0,5.54-5.48c3.11-4.16,4.7-10.29,4.35-16.82-.16-3.07-1.76-6.37-5-6.81-2.84-.39-5,1.78-6.12,3a203,203,0,0,1-44.87,34.52c-1.51.86-3,1.63-4.29,1.49a2,2,0,0,1-1.38-.84.65.65,0,0,1-.14-.5c.13-.43.94-1,1.41-1.31,7.82-5.37,15.71-11.07,23.47-17l2.08-1.56a126.58,126.58,0,0,0,10.84-8.7c1.66-1.64,3.41-3.67,3.82-6.34a6.55,6.55,0,0,0-1.33-5,5,5,0,0,0-3.57-2c-2.83-.21-5,2-6.05,4.09-.34.67-.61,1.34-.86,2a11.07,11.07,0,0,1-1.27,2.57c-1.33,1.76-3.87,2.27-5.26,2.41a33.6,33.6,0,0,1-3.94.1c-1.16,0-2.36,0-3.57,0a45.18,45.18,0,0,0-6.78,1.13c-1.55.34-3,.67-4.52.87,5.83-2.08,13-4.91,16.39-7.32a3.45,3.45,0,0,0,1.75-3.07c-.13-1.81-1.86-2.68-3-3.26-.24-.12-.59-.3-.69-.37s0-1.32.75-2.37l.45-.58c1.19-1.53,2.67-3.44,2.3-5.91-.34-2.24-2.53-5.15-5-5.7a8.1,8.1,0,0,0-.82-.14,4.57,4.57,0,0,0,2.09-1.12,3.82,3.82,0,0,0,1.07-3.31c-.35-3-4.46-3.73-9.21-4.53-1.41-.24-2.74-.46-3.83-.73a16.3,16.3,0,0,1-4.91-1.76,4.11,4.11,0,0,1-2.07-3.13,8.77,8.77,0,0,1,3.71-6.36c3.66-2.38,9.27-4.28,14.07-2.48.31.12.62.25.94.39,1.54.67,3.45,1.5,5.51.65a6.32,6.32,0,0,0,3-3,40.88,40.88,0,0,0,2.65-6.48c1.23-3.57,2.39-7,5-9,1.55-1.22,4.56-1.26,7.22-1.29,1.13,0,2.2,0,3.22-.12,1.38-.12,3.45-.31,4.91-1.81a9.6,9.6,0,0,0,1.78-4.47c.37-3.53-3.43-6.39-5.48-7.93a22.44,22.44,0,0,0-7-3.15l-11.29-3.53c-1.58-.5-3.31-1.12-3.81-2.24a2,2,0,0,1,.23-1.77,2.49,2.49,0,0,1,1.73-1.28c4-.44,5.53.72,7.14,2a12.1,12.1,0,0,0,2.26,1.47,35.59,35.59,0,0,0,6,2.22,25.79,25.79,0,0,1,6.65,2.79,20.45,20.45,0,0,0,5.13,1.72c.63.15,1.24.3,1.8.46,6,1.75,12.35-1.32,17.76-8.64,4.11-5.56,7.95-10.32,13.2-12.14,4.43-1.53,9.13-.28,14.11,1,5.65,1.51,11.49,3.06,17.26.49a9.52,9.52,0,0,0,3.4-3c.93-1.14,1.4-1.65,2-1.65h0c1.88,0,5.31,3.41,5.83,5.74.47,2.11.09,4.55-1.21,7.69-.15.35-.45.92-.76,1.51-1.13,2.12-2.41,4.52-1.93,6.48a8.39,8.39,0,0,0,1.32,2.71c2.64,3.9,8.65,3.9,10.42,3.81,2.4-.12,4.35-1.42,6.07-2.55,1.56-1,2.89-1.91,4.25-1.86,2,.09,3.45,2.6,3.39,4.68C1167.93,356.16,1167.4,357.57,1164.6,359.13Z"/><path d="M1442.43,165.41c-25.91-27.57-58.16-41.74-93.17-40.91a127,127,0,0,0-26.87,3.55c-49.32-29.49-121.61-61.36-198.52-87.52C1049.26,15.15,984.15,0,949.7,0,901.36,0,776.52,56.63,674.24,112.75c-56.35,30.92-99.65,68.47-137.85,101.61-7.17,6.22-13.94,12.09-20.74,17.88-36.34,30.93-68.64,78-58.88,113.31,9.68,35.09,20.35,105.55,23.44,138.65,1.24,13.3-.2,26.62-1.36,37.32-.46,4.25-.89,8.26-1.11,11.8-.25,4.08,0,7.25,2.05,10.15-55,56.37-110.22,90.73-190.18,118.37l-.08,0c-37.65,10.24-75.43,20.05-113.1,30.31-25.42,6.91-50.79,14-76,21.66l-9.46,2.88-9.43,3c-6.29,2-12.55,4-18.81,6.11-3.14,1-6.25,2.11-9.36,3.19L44,732.24c-6.19,2.3-12.42,4.47-18.55,6.93-3.07,1.22-6.17,2.36-9.21,3.64l-9.14,3.83-1.14.48-.58.25-.72.38a8.2,8.2,0,0,0-1.34.93,9.54,9.54,0,0,0-1.11,1.19,11.39,11.39,0,0,0-2.07,5.56,29.25,29.25,0,0,0,1.09,10.51,55.77,55.77,0,0,0,3.56,9.59,42,42,0,0,0,5.48,8.81,15.88,15.88,0,0,0,2,2l2.08,1.58a19.8,19.8,0,0,0,2.14,1.45l2.18,1.36c1.49.8,3,1.6,4.5,2.36s3.07,1.39,4.62,2.06A116.39,116.39,0,0,0,46.91,801c3.25.78,6.56,1.26,9.85,1.83,3.32.38,6.63.87,10,1a121.87,121.87,0,0,0,39.1-3.4q8.94,4,18,7.66,17.34,7.13,35,13.51a1151.72,1151.72,0,0,0,143.81,42c48.79,10.67,98.49,18.24,148.62,19l9.4,0c1.57,0,3.13,0,4.7-.06l4.7-.13c6.28-.12,12.5-.45,18.73-.73l18.69-.86,18.69-1c12.46-.6,24.91-1.4,37.37-2.1l18.68-1.22c6.23-.4,12.45-.82,18.67-1.31l18.67-1.41,18.65-1.61,9.33-.82,9.32-.93c6.21-.64,12.43-1.2,18.63-1.9q37.24-4,74.27-10l18.48-3.18c6.15-1.12,12.27-2.38,18.41-3.57s12.23-2.59,18.34-3.93l9.15-2,9.1-2.29a612.85,612.85,0,0,0,71.7-22.24,447.33,447.33,0,0,0,67.69-32.6A364.64,364.64,0,0,0,1023,744a359,359,0,0,0,49.67-56.36,432.49,432.49,0,0,0,37.73-64.52c24.23-.42,46.57-1.18,66.29-2.33,91.05-5.33,156.94-21,196.18-33.3,42.84-13.38,69.24-27.36,73.59-32.6,2.65-3.19,3.68-12.87,5.07-28.43.66-7.37,1.28-14.33,2.17-18.59a50.34,50.34,0,0,1,3.43-8.73c2.3-5.06,4.68-10.28,4.62-14.21,0-2.28-1.38-4.71-2.81-7.27-.45-.81-.89-1.64-1.3-2.45,20.76-37.3,33.91-80.73,37.77-126,3.14-36.77-.22-73.16-9.7-105.25C1476.45,212.9,1461.51,185.71,1442.43,165.41ZM1069.27,685.29a354.78,354.78,0,0,1-49.18,55.63A360.34,360.34,0,0,1,960.35,785a445.4,445.4,0,0,1-67.07,32.19,608.46,608.46,0,0,1-71.17,22.12l-9,2.28-9.11,2c-6.07,1.34-12.12,2.79-18.24,3.92s-12.2,2.44-18.32,3.56L749,854.28q-36.87,5.95-74,10c-6.19.7-12.39,1.27-18.59,1.9l-9.3.93-9.31.82-18.62,1.62-18.64,1.42c-6.21.49-12.43.91-18.65,1.32l-18.65,1.23c-12.44.7-24.88,1.51-37.33,2.12l-18.67,1-18.68.87c-6.23.29-12.46.62-18.65.74l-4.65.13c-1.55.06-3.1.08-4.65.06l-9.31,0c-3.1,0-6.21-.14-9.31-.22s-6.21-.15-9.31-.33c-6.2-.38-12.41-.63-18.6-1.21l-9.29-.77-9.28-1-4.64-.48-4.63-.57-9.25-1.16c-24.66-3.29-49.15-7.81-73.47-13.12a1147.68,1147.68,0,0,1-143.31-41.73q-17.55-6.36-34.83-13.43c-11.51-4.72-22.92-9.68-34.09-15.08-5.61-2.67-11.08-5.55-16.52-8.53a92.5,92.5,0,0,0-17.47-7.7A62.23,62.23,0,0,0,47.81,771a52.63,52.63,0,0,0-9.7-.37,63.17,63.17,0,0,0-18.79,4.17,1,1,0,0,0,.6,1.9l.11,0a90.64,90.64,0,0,1,9.09-2.07,60.23,60.23,0,0,1,9.16-.8l2.28,0,2.27.15a22.55,22.55,0,0,1,2.26.22c.75.11,1.5.16,2.25.31,1.49.28,3,.55,4.44,1s2.92.81,4.37,1.24a96.75,96.75,0,0,1,16.63,7.58c5.5,3,11.06,6,16.71,8.64,3.41,1.65,6.83,3.24,10.27,4.81a117.76,117.76,0,0,1-32.76,2c-3.24-.16-6.44-.65-9.66-1-3.19-.56-6.4-1-9.54-1.8a112.22,112.22,0,0,1-18.48-5.72l-4.38-2c-1.42-.72-2.82-1.48-4.22-2.23l-2-1.26a17,17,0,0,1-1.93-1.31L15,783a11.59,11.59,0,0,1-1.48-1.49,38,38,0,0,1-4.84-7.88,51.48,51.48,0,0,1-3.25-8.84,25.17,25.17,0,0,1-1-8.89,7.12,7.12,0,0,1,1.21-3.41,5.46,5.46,0,0,1,.51-.55,3.82,3.82,0,0,1,.62-.42l.34-.18.56-.23,1.13-.47,9.08-3.77c3-1.26,6.11-2.38,9.16-3.59,6.08-2.45,12.28-4.62,18.43-6.91l9.3-3.25C57.88,732.08,61,731,64.1,730c6.24-2.07,12.46-4.16,18.74-6.11l9.4-3,9.43-2.88c25.16-7.66,50.49-14.78,75.88-21.71,50.77-13.89,101.8-27,152.48-41.42,25.32-7.28,50.59-14.84,75.52-23.54,12.46-4.34,24.81-9.05,37-14.25l9.07-4,8.94-4.37c1.48-.75,2.89-1.64,4.34-2.45s2.84-1.73,4.21-2.67,2.66-2,3.95-3.09A49,49,0,0,0,476.7,597l.12-.13a1,1,0,0,0-1.2-1.46c-2.77,1.7-5.49,3.46-8.29,5.11s-5.71,3.13-8.6,4.65l-8.81,4.3-9,4c-12.05,5.13-24.32,9.8-36.73,14.1-24.08,8.37-48.54,15.69-73.08,22.74a457.54,457.54,0,0,0,60.53-30.6c31.69-19.23,61.33-43.13,90.55-73q.82,1.1,1.67,2.29c10.82,15,28.92,40,113.22,50.36,107.61,13.24,311.48,24.23,465.79,24.23,14.82,0,29.18-.1,43-.31A426.84,426.84,0,0,1,1069.27,685.29ZM1457.7,485c0,3-2.24,8.05-4.26,12.49a52.15,52.15,0,0,0-3.7,9.57c-.93,4.49-1.57,11.56-2.24,19.05-.9,10-2.12,23.78-4.17,26.23-2.57,3.1-25.21,16.82-71.7,31.33-39,12.18-104.57,27.82-195.22,33.12-147.5,8.63-441.54-4.61-578.81-21.49C515,585.19,497.57,561,487.14,546.61c-1.29-1.78-2.5-3.46-3.72-5-1.71-2.1-1.91-4.47-1.69-8.1.22-3.45.64-7.42,1.1-11.62,1.18-10.88,2.64-24.42,1.36-38.12-3.1-33.24-13.82-104.05-23.56-139.35-9.29-33.65,22.25-79.09,57.62-109.2,6.81-5.79,13.59-11.67,20.76-17.9,38-33,81.18-70.41,137.15-101.12C798.53,49.11,908.46,4,949.7,4c34,0,98.67,15.07,172.87,40.31,74.91,25.48,145.39,56.38,194.37,85.16-23.57,6.73-46.46,20.18-67.46,39.79-29.73,27.76-53.42,65.66-68.53,109.58a2,2,0,0,0,.92,2.4l138.72,77.14-138,123.19a2,2,0,0,0-.52,2.25c25.08,61.23,72,97.46,125.87,97.46.93,0,1.86,0,2.79,0,44.24-1,87.82-25.77,122.7-69.72a266.19,266.19,0,0,0,21.83-32.17l.15.27C1456.51,481.66,1457.68,483.75,1457.7,485Zm33.67-136.09c-10.57,123.85-91.65,226.27-180.74,228.31-52.95,1.24-99.34-33.75-124.32-93.64l139.06-124.12a2,2,0,0,0-.36-3.24l-139.71-77.69c30.89-88.29,96.66-148.52,164.05-150.06,33.87-.78,65.06,12.93,90.17,39.65C1478.13,209.25,1497.52,276.83,1491.36,348.94Z"/><path d="M1312.58,191.67c-15.62,0-30.22,18.93-32.56,42.19-1.42,14.25,2,27.47,9.16,35.38,4.27,4.72,9.56,7.21,15.31,7.21,15.62,0,30.22-18.93,32.56-42.19h0c1.42-14.25-2-27.47-9.16-35.38C1323.62,194.16,1318.33,191.67,1312.58,191.67Zm20.49,42.19h0c-2.14,21.28-15,38.59-28.58,38.59a16.51,16.51,0,0,1-12.35-5.89c-6.41-7.08-9.45-19.16-8.14-32.3,2.14-21.28,15-38.59,28.58-38.59a16.51,16.51,0,0,1,12.35,5.89C1331.34,208.65,1334.38,220.72,1333.07,233.86Z"/><path d="M1417,252.82a17,17,0,0,0,.66-4.78l0-.69a43,43,0,0,1,3.07-14.09c.55-1.36,1.18-2.73,1.79-4.06.83-1.8,1.69-3.65,2.39-5.59,1.55-4.28,1.94-8,1.18-11.36a8.41,8.41,0,0,0-1.46-3.36,10.54,10.54,0,0,0-2.23-2l-.37-.27a20.69,20.69,0,0,1-5.43-6.14c-.25-.43-.48-.86-.71-1.3a15.7,15.7,0,0,0-3.23-4.59c-2.18-2-4.87-2.55-7.46-3.14-1-.23-2-.44-2.86-.73l-.91-.31a13.12,13.12,0,0,0-3.37-.85,13,13,0,0,0-3.38.28,18.55,18.55,0,0,0-7.29,2.41c-3,2-4.63,5.35-5.92,8l-4,8.31a67.55,67.55,0,0,0-3.16,7.33l-.15.44c-1.82,5.33-4.09,12-1,17.35,2.95,5.12,12.49,11.37,15.91,13.34h0a17,17,0,0,0,4.67,1.64,20.51,20.51,0,0,1,2.74.79,29.75,29.75,0,0,1,8,5c1.55,1.29,3.79,3.17,6.47,3.17a5.7,5.7,0,0,0,1.22-.13A6.87,6.87,0,0,0,1417,252.82Zm-9.92-1.36a33.54,33.54,0,0,0-9-5.69,23.82,23.82,0,0,0-3.28-1,13.83,13.83,0,0,1-3.62-1.22c-4.59-2.65-12.36-8.26-14.45-11.87-2.19-3.81-.33-9.26,1.31-14.06l.15-.44a64.74,64.74,0,0,1,3-6.9l4-8.31c1.13-2.35,2.4-5,4.52-6.43a15.3,15.3,0,0,1,5.77-1.8,6.65,6.65,0,0,1,4.71.4l1,.35c1.07.34,2.15.59,3.2.82,2.19.49,4.27,1,5.67,2.22a12.55,12.55,0,0,1,2.37,3.49c.25.48.51,1,.78,1.41a24.71,24.71,0,0,0,6.49,7.33l.4.3a7.33,7.33,0,0,1,1.43,1.24,4.57,4.57,0,0,1,.73,1.79c.58,2.6.24,5.58-1,9.12-.64,1.77-1.43,3.47-2.26,5.27-.63,1.37-1.29,2.79-1.87,4.24a47,47,0,0,0-3.36,15.4l0,.72a13.76,13.76,0,0,1-.46,3.68,3.05,3.05,0,0,1-1.85,2.09C1410.14,253.92,1408.7,252.81,1407.08,251.46Z"/><path d="M1437.27,273.46c-3.16,0-6.79,0-9.78,2a14.07,14.07,0,0,0-4.81,6.26,31.65,31.65,0,0,0-2.57,16.72c.56,4.77,2.2,9.25,3.77,13.59,1,2.68,2,5.45,2.7,8.2l.2.8a16,16,0,0,0,2.53,6.16c2.52,3.25,6.85,4.22,9.72,4.86a16.86,16.86,0,0,0,3.7.53c.27,0,.54,0,.82,0,2.74-.25,5-1.82,7.09-3.4a30.59,30.59,0,0,0,5-4.44,32.07,32.07,0,0,0,3.51-5.43c1.73-3.12,3.69-6.66,4.33-10.61.82-5-.57-9.87-1.91-14.54-.31-1.1-.63-2.19-.91-3.28a60.18,60.18,0,0,1-1.73-10.38l0-.32a12.43,12.43,0,0,0-1.17-5.13c-1.11-2.07-3.72-3.8-6.34-2.91a5.1,5.1,0,0,0-1.34.74l-.31.21c-2.09.55-6.5.49-9.42.44l-2.21,0Zm3,4c3.54.05,7.94.12,10.56-.59h0a4.75,4.75,0,0,0,1.54-.8l.31-.21c.43-.15,1.19.36,1.54,1a9.18,9.18,0,0,1,.7,3.53l0,.33a64.23,64.23,0,0,0,1.85,11.08c.29,1.12.61,2.25.94,3.38,1.27,4.45,2.48,8.66,1.8,12.8-.53,3.26-2.23,6.34-3.88,9.31a29.16,29.16,0,0,1-3.06,4.78,26.89,26.89,0,0,1-4.35,3.84c-1.69,1.28-3.35,2.45-5,2.6a11.13,11.13,0,0,1-3.28-.41c-3.05-.68-5.91-1.45-7.43-3.41a12.66,12.66,0,0,1-1.81-4.68l-.21-.83c-.76-2.93-1.8-5.79-2.81-8.56-1.57-4.32-3.05-8.39-3.56-12.7a27.65,27.65,0,0,1,2.25-14.6,10.38,10.38,0,0,1,3.39-4.59c1.85-1.24,4.35-1.32,7-1.32h1.38Z"/><path d="M1454.47,399.83a16.61,16.61,0,0,0-6.65-8l-.48-.34a66.3,66.3,0,0,1-11.18-10.29c-.92-1.07-4.46-3.44-7.42-2.72a8.94,8.94,0,0,0-5.94,5.56,28.56,28.56,0,0,0-1,3.06,14.62,14.62,0,0,1-3.75,7.1,27.38,27.38,0,0,0-2.84,4,24.47,24.47,0,0,0-2.32,7.69,93.56,93.56,0,0,0-1.28,16.06,20.27,20.27,0,0,0,.58,5.37,16.9,16.9,0,0,0,3.85,6.54,30.28,30.28,0,0,0,5.12,4.61,56.63,56.63,0,0,0,5,3.08l6.61,3.74a11.39,11.39,0,0,0,5.5,1.87h.14c4-.09,6.68-3.55,7.85-6.75a34.53,34.53,0,0,0,1-3.54,14.33,14.33,0,0,1,5.39-9.12,24.33,24.33,0,0,0,4.52-5.4,17.13,17.13,0,0,0,1.34-12A46.7,46.7,0,0,0,1454.47,399.83Zm-.69,20.57a21,21,0,0,1-3.83,4.5,18.06,18.06,0,0,0-6.48,11,30.79,30.79,0,0,1-.89,3.13c-.74,2-2.32,4.09-4.18,4.13a7.79,7.79,0,0,1-3.59-1.35l-6.61-3.73a53.57,53.57,0,0,1-4.68-2.86,26.26,26.26,0,0,1-4.44-4,13.08,13.08,0,0,1-3-5,16.66,16.66,0,0,1-.43-4.31,89.6,89.6,0,0,1,1.23-15.37,20.4,20.4,0,0,1,1.89-6.45,24.06,24.06,0,0,1,2.45-3.44,18.39,18.39,0,0,0,4.48-8.53,25.05,25.05,0,0,1,.83-2.64,5,5,0,0,1,3.18-3.16h0l.23,0a6.39,6.39,0,0,1,3.2,1.47A70.35,70.35,0,0,0,1445,394.7l.49.35a12.85,12.85,0,0,1,5.4,6.54,43.69,43.69,0,0,1,3.82,9.63A13.18,13.18,0,0,1,1453.78,420.4Z"/><path d="M1395.3,488.08a22.46,22.46,0,0,1-.91-5.12c0-.66,0-1.35.1-2.08a18.26,18.26,0,0,0-1-8.23c-.18-.64-.34-1.28-.51-1.92a28.46,28.46,0,0,0-2.81-7.69c-.26-.44-.6-1.1-1-1.79-1.64-3.19-3.69-7.16-6.71-7.69-2.38-.41-4.23,1-5.71,2.07a6.37,6.37,0,0,1-2.56,1.43,16.33,16.33,0,0,1-1.83,0,11,11,0,0,0-6.75,1.64c-3.33,1.77-7.11,3.77-9.82,7a28.64,28.64,0,0,0-3.4,5.49c-1.68,3.3-3.48,7.17-3.61,11.36a29.52,29.52,0,0,0,1.3,8.27l2.42,9.33a79,79,0,0,0,2.37,8c.84,2.25,2.29,5.45,5.15,7.3,3,2,6.72,1.88,9.57,1.59a15,15,0,0,1,2.94.11c.8.08,1.65.16,2.52.16a8.47,8.47,0,0,0,3.7-.74c3.07-1.45,4.79-4.18,6.45-6.81a16.9,16.9,0,0,1,4-5l.88-.61a15.12,15.12,0,0,0,4.79-4.48c1.43-2.4,1.73-5.43.91-9.28C1395.71,489.67,1395.5,488.87,1395.3,488.08Zm-3.76,9.62a11.79,11.79,0,0,1-3.62,3.23l-.93.65a20.1,20.1,0,0,0-5.09,6.08c-1.42,2.25-2.76,4.38-4.78,5.33a8.11,8.11,0,0,1-4.11.22c-.83-.08-1.68-.17-2.55-.17a11.38,11.38,0,0,0-1.19.06c-2.21.23-5,.33-7-1-1.44-.93-2.55-2.58-3.58-5.35a76.26,76.26,0,0,1-2.24-7.56l-2.42-9.33a26.13,26.13,0,0,1-1.17-7.14c.1-3.36,1.63-6.62,3.18-9.67a25,25,0,0,1,2.9-4.74c2.21-2.65,5.47-4.38,8.62-6a7.27,7.27,0,0,1,4.83-1.18,20.16,20.16,0,0,0,2.29-.07,9.3,9.3,0,0,0,4.54-2.21c1-.75,1.94-1.45,2.63-1.34,1.07.2,3.16,4.25,3.84,5.58.4.78.75,1.46,1.08,2a25.08,25.08,0,0,1,2.37,6.64c.17.67.34,1.34.53,2a14.53,14.53,0,0,1,.82,6.84c-.06.79-.12,1.61-.11,2.46a25.84,25.84,0,0,0,1,6c.19.74.38,1.48.54,2.23C1392.57,494.12,1392.43,496.21,1391.54,497.69Z"/><path d="M1319.93,478.85c-.3-3-.69-5.83-2.14-8.43s-3.91-4.79-7.66-6.77c-1.05-.55-2.13-1.06-3.17-1.55a42.73,42.73,0,0,1-4.89-2.55,20.57,20.57,0,0,1-2-1.58,12.8,12.8,0,0,0-5.36-3.13h0a33.33,33.33,0,0,0-8.17-.09c-2.87.31-4.32,2.88-5.37,4.75-.2.36-.4.71-.6,1a30.79,30.79,0,0,1-2.71,3.55,27.14,27.14,0,0,0-6.12,11c-1.75,4.9-3.56,10-4,15.4a23,23,0,0,0,.39,6.79A19,19,0,0,0,1280.39,511c1.09.36,2.18.62,3.24.86.88.2,1.72.4,2.53.65a36.12,36.12,0,0,1,4,1.62c.8.36,1.6.71,2.41,1a36.26,36.26,0,0,0,10,2.46c.42,0,.82.06,1.2.06,3.5,0,4.85-1.69,5.36-2.77a6.21,6.21,0,0,0,.47-1.66,4.45,4.45,0,0,1,.12-.57c.27-.88,1.56-1.57,2.8-2.24l.28-.15c3.58-1.93,5.9-4.19,7.09-6.89,1.1-2.51,1.13-5.17,1.05-7.9C1320.85,490,1320.49,484.36,1319.93,478.85Zm-3.65,22.93c-.81,1.85-2.55,3.48-5.33,5l-.27.15c-1.77.95-4,2.13-4.73,4.57a8.35,8.35,0,0,0-.24,1.07,3.47,3.47,0,0,1-.15.64c-.15.31-1.09.57-2.55.43a32.29,32.29,0,0,1-8.93-2.19c-.77-.31-1.52-.65-2.28-1a40.13,40.13,0,0,0-4.49-1.79c-.95-.29-1.89-.51-2.81-.72s-2-.45-2.87-.76a14.91,14.91,0,0,1-9.64-10.75,19.1,19.1,0,0,1-.31-5.62c.38-4.89,2.1-9.71,3.76-14.37a23.39,23.39,0,0,1,5.41-9.77,34.16,34.16,0,0,0,3.05-4c.23-.37.46-.77.68-1.18.73-1.3,1.49-2.65,2.31-2.74,1-.11,2.51-.19,3.91-.19a15.9,15.9,0,0,1,3,.21,9.57,9.57,0,0,1,3.65,2.29,23.83,23.83,0,0,0,2.46,1.89,46.21,46.21,0,0,0,5.35,2.8c1,.49,2,1,3,1.46,3,1.6,5,3.24,6,5.18s1.39,4.26,1.65,6.88c.55,5.41.9,10.91,1,16.34A14.54,14.54,0,0,1,1316.29,501.77Z"/></g><g id="LuzESombraChapeu"><path class="cls-8" d="M949.7,4C908.46,4,798.53,49.11,676.16,116.25c-56,30.72-99.1,68.12-137.15,101.12-7.18,6.23-14,12.11-20.76,17.9a232.42,232.42,0,0,0-17.38,16.41h0q-2.23,2.34-4.4,4.74c-.73.8-1.44,1.6-2.15,2.41s-1.42,1.62-2.11,2.44-1.39,1.64-2.07,2.46-1.36,1.66-2,2.49q-2,2.51-3.91,5c-18.36,24.41-29.61,51.3-23.56,73.21,9.74,35.29,20.46,106.1,23.56,139.34,1.28,13.71-.18,27.25-1.36,38.12-.45,4.21-.88,8.17-1.1,11.62a28.2,28.2,0,0,0-.05,3.14c6.85,5.68,19.19,13.81,41.11,17.93,8.17,1.53,13.82-4.36,14.79-9,5.82-27.83-.79-120.42-19.12-193.65-7.56-30.21-1.33-49.09,8.91-60.83,9.43-10.81,39.87-13,54.2-12.36,41.06,1.88,82.68,1.47,92.13-6.93C694.14,253.7,880.46,4.09,969.7,11.33,1017,15.17,1033.16,22.94,1094,35,1032,15.39,979.3,4,949.7,4Z"/><path class="cls-9" d="M1447.58,498.38c-.57,3.5-9.38,13.45-11.21,21.62-1.54,6.86-2.8,14.05-3.65,19.34a19.06,19.06,0,0,1-8.28,12.93c-89.41,59-276,66-309.4,66.8l-.78,0-.78,0-1,0-2.57,0c-18.93.32-39,.43-59.89.35l142.21-51c-33-3.83-126.11-4.83-119.5-21.83,3.5-9,46.37-6.6,67.73-12.67l-11-37a20.21,20.21,0,0,0,7.2,1.47q.41,0,.78,0a12.13,12.13,0,0,0,9.05-4.54,10.82,10.82,0,0,0,1.81-9c-.62-2.85-1.41-5.66-2.16-8.37-.27-1-.54-1.94-.8-2.91a33.44,33.44,0,0,1-.5-13.75,41.62,41.62,0,0,1,3.65-11.6c1.63-3.35,3.57-6.63,5.44-9.81,1.32-2.23,2.65-4.5,3.91-6.84A72.61,72.61,0,0,0,1161,425c5.42-12.91,6.67-25.49,3.72-37.38-.41-1.64-1-3.36-1.6-5.18-1.51-4.51-3.22-9.61-1.95-13.16a13.31,13.31,0,0,1,5.34-6.68c3.75-2.08,5.33-4.61,5.45-8.73s-2.74-8.59-7.2-8.8c-2.67-.12-4.78,1.28-6.65,2.52-1.42.94-2.76,1.83-4.07,1.89-2.65.14-5.82-.44-6.91-2.06a4.71,4.71,0,0,1-.74-1.37c-.05-.67,1.08-2.79,1.56-3.69.39-.72.71-1.33.94-1.87,1.62-3.93,2.06-7.14,1.41-10.08a13.15,13.15,0,0,0-4.39-6.54,9,9,0,0,0-5.28-2.33c-2.6-.07-4.07,1.79-5.15,3.13a6.3,6.3,0,0,1-1.93,1.83c-4.32,1.93-9,.78-14.06-.56l-.54-.14c-5.34-1.43-10.86-2.9-16.45-1-6.85,2.38-11.62,8.83-15.1,13.54a27,27,0,0,1-3.71,4.11l-11.78-39.77A17.66,17.66,0,0,1,1088.4,283c25.26-1.52,49-3.76,71.19-6.54,26.18-65.75,70.4-89.72,75.33-92.23-18,20.28-33.3,44.59-45.1,71.78q-3.68,8.45-6.87,17.25-1,2.77-2,5.59a2,2,0,0,0,.92,2.4l85.75,47.68,53,29.46-138,123.19a2,2,0,0,0-.52,2.25c25.08,61.23,72,97.46,125.87,97.46l2.79,0c44.24-1,87.81-25.77,122.7-69.72q6.77-8.52,12.87-17.74A6.58,6.58,0,0,1,1447.58,498.38Z"/><path class="cls-10" d="M1196.15,284.09l144.14,73.4L1200.54,490.55S1221.7,551,1297.2,576.5l-.12.26c-47.25-4.49-88-38.43-110.78-93.15l139.06-124.12a2,2,0,0,0-.36-3.24l-129.07-71.78-10.64-5.91c30.89-88.29,96.66-148.52,164.06-150.06a112.76,112.76,0,0,1,51.68,11C1267.33,96.46,1196.15,284.09,1196.15,284.09Z"/><path class="cls-10" d="M1336.59,260.14c-6.18,14.63-16.9,20.53-27.76,20.53-9.31,0-15.16-6-17.62-9.42a19.72,19.72,0,0,0,13.27,5.2c15.62,0,30.22-18.93,32.56-42.19,1.42-14.25-2-27.47-9.16-35.38-.34-.38-.69-.74-1-1.09C1344.61,213.43,1344.84,240.6,1336.59,260.14Z"/><path class="cls-9" d="M1333.37,227.91c0,1.11,0,2.24-.1,3.37-.05.86-.11,1.72-.2,2.58-.11,1.08-.24,2.14-.41,3.19a58.16,58.16,0,0,1-1.54,7.16c-.28,1-.59,2-.93,3-.21.61-.42,1.22-.64,1.81l-.23.6c-.13.34-.27.68-.41,1-.5,1.23-1,2.43-1.62,3.58-.19.38-.39.77-.59,1.14s-.52,1-.79,1.43l-.52.89a41.2,41.2,0,0,1-3.37,4.82,27.74,27.74,0,0,1-11.27,8.75,17.82,17.82,0,0,1-5,1.14q-.66.06-1.29.06a16.53,16.53,0,0,1-12.35-5.89,30,30,0,0,1-5.87-10.24c11.58-2.61,23.33-5.6,34.76-9,12.33-44-16.73-49.54-16.73-49.54a18,18,0,0,1,8.28-2.12,16.53,16.53,0,0,1,12.35,5.89c5,5.51,7.93,14,8.38,23.73C1333.35,226.15,1333.37,227,1333.37,227.91Z"/><path class="cls-8" d="M501.72,568.32c-4.69,15.51-24.31,28-25,28.65l.09-.1a1,1,0,0,0-1.2-1.46c-2.76,1.69-5.48,3.46-8.29,5.11s-5.71,3.13-8.59,4.64l-8.81,4.3-9,4c-12.06,5.13-24.32,9.8-36.73,14.1-24.08,8.37-48.55,15.7-73.09,22.74a457.35,457.35,0,0,0,60.54-30.6c31.69-19.23,61.33-43.13,90.55-73,.55.74,1.1,1.5,1.67,2.29,3.73,5.17,8.34,11.53,16.24,18.08Z"/><path class="cls-9" d="M99.77,797.71c-56.85,2.91-77.14-17.17-80.53-21.08a1,1,0,0,0,.68.07l.11,0a91.71,91.71,0,0,1,9.09-2.08,60.39,60.39,0,0,1,9.16-.8l2.28,0,2.28.15c.76,0,1.51.12,2.26.22s1.51.17,2.25.31c1.49.28,3,.55,4.44.95s2.92.81,4.37,1.24a96.29,96.29,0,0,1,16.62,7.58c5.5,3,11.07,5.95,16.72,8.65Q94.6,795.37,99.77,797.71Z"/><path class="cls-8" d="M881.13,821.7l-3.31,1.17-4,1.38q-3.21,1.09-6.44,2.14-13.21,4.3-26.62,8-1.86.53-3.72,1l-2.85.77q-6,1.62-12.06,3.13l-9,2.27-9.11,2c-6.07,1.33-12.12,2.79-18.24,3.91s-12.21,2.44-18.33,3.56L749,854.28q-36.87,5.94-74,10c-6.18.7-12.39,1.27-18.58,1.91l-9.3.93-9.31.82-18.62,1.62-18.63,1.42c-6.21.49-12.43.91-18.65,1.31l-18.65,1.23c-12.44.71-24.88,1.52-37.33,2.12l-18.67,1-18.68.87c-6.23.28-12.46.62-18.66.74l-4.65.13c-1.55,0-3.1.08-4.66.06l-9.31,0c-3.1,0-6.21-.15-9.31-.22s-6.21-.15-9.31-.33c-6.21-.38-12.41-.63-18.61-1.21l-9.29-.76-9.27-1-4.64-.48-4.63-.57-9.25-1.16c-24.66-3.3-49.15-7.82-73.47-13.12a1147.62,1147.62,0,0,1-143.31-41.73q-17.56-6.36-34.83-13.43-8.58-3.52-17.06-7.24c-2.53-1.11-5-2.24-7.55-3.39L96,791.55q-2.37-1.11-4.73-2.25c-5.61-2.67-11.09-5.55-16.52-8.53a92.23,92.23,0,0,0-17.47-7.7A63.17,63.17,0,0,0,47.81,771a53.27,53.27,0,0,0-9.7-.36,63,63,0,0,0-18.79,4.17A.89.89,0,0,0,19,775a1,1,0,0,0-.3,1,0,0,0,0,0,0,0,1,1,0,0,0,.52.63c3.39,3.91,23.68,24,80.53,21.08a117.64,117.64,0,0,1-32.76,2c-3.24-.16-6.44-.65-9.66-1-3.19-.56-6.4-1-9.54-1.8a112.37,112.37,0,0,1-18.48-5.73l-4.38-2c-1.42-.72-2.82-1.47-4.22-2.23l-2-1.25a16.81,16.81,0,0,1-1.93-1.32L15,783a11.59,11.59,0,0,1-1.48-1.49,38.14,38.14,0,0,1-4.84-7.88,51.54,51.54,0,0,1-3.25-8.84,25.1,25.1,0,0,1-1-8.89,7,7,0,0,1,1.2-3.39,0,0,0,0,0,0,0,5.36,5.36,0,0,1,.51-.55,96.18,96.18,0,0,1,11.52-3c11-2.12,32.33-4,40.11-2l.07,0,2.64.77.23.08h0a185.73,185.73,0,0,1,26.06,10.37c5.47,2.68,10.66,5.86,16.14,8.53s11,5.32,16.64,7.84,11.07,4.89,16.66,7.24q16.84,7.08,34,13.43a1101.67,1101.67,0,0,0,140,41.73c23.76,5.3,47.68,9.82,71.77,13.12l9,1.16,4.52.57,4.54.48,9,1,9.08.76c6,.58,12.11.83,18.17,1.21h.29C445.76,856.14,668,876.27,881.13,821.7Z"/><path class="cls-9" d="M1105.87,623.23q-4.24,8.75-8.85,17.31c-257.67-2.43-496-40.6-499.85-41.21,107.63,13.22,311.45,24.22,465.74,24.22q9.92,0,19.55-.07Q1094.41,623.4,1105.87,623.23Z"/><path class="cls-11" d="M1067.72,363.18a9.56,9.56,0,0,0,1.78-4.47c.37-3.53-3.43-6.4-5.47-7.94a22.62,22.62,0,0,0-7-3.15l-11.29-3.53c-1.58-.5-3.31-1.12-3.8-2.24a2,2,0,0,1,.23-1.77,2.44,2.44,0,0,1,1.73-1.28l.88-.07a1.64,1.64,0,0,1,1.63,2.23c-.39.85-.09,1.84,2.15,2.71C1053.7,345.67,1079.26,351.31,1067.72,363.18Z"/><path class="cls-12" d="M1132.7,331c-3.43,1-7.87,1.54-15,0-9-2-15.83-2.83-23.65,7.72-4.5,6.07-9.12,8.73-12.23,9.87a24.23,24.23,0,0,0,8.83-7.81c4.12-5.56,8-10.32,13.21-12.14,4.42-1.54,9.12-.28,14.1,1S1127.76,332.3,1132.7,331Z"/><path class="cls-13" d="M1146.61,333.31c-2.24-6.72-6.11-7.35-6.85-5.87s-4.54,2.73-4.54,2.73l.17-.09a9.6,9.6,0,0,0,3.23-2.87c.93-1.14,1.4-1.65,2-1.65h0c1.87,0,5.3,3.41,5.82,5.74A7.72,7.72,0,0,1,1146.61,333.31Z"/><path class="cls-14" d="M1168,353.77a11.09,11.09,0,0,1-.12,1.36c-.71-3.7-1-5.3-8.68-1.51s-13.64-2-14.19-2.63c2.94,2.6,7.71,2.59,9.27,2.51,2.4-.13,4.36-1.42,6.08-2.56,1.55-1,2.88-1.91,4.25-1.85C1166.6,349.18,1168.06,351.68,1168,353.77Z"/><path class="cls-15" d="M1065,364.66a32.87,32.87,0,0,1-9.77,1.9c-2.34.06-6.35,5.82-8.1,9.51.07-.23.15-.46.23-.68,1-2.84,1.9-5.56,3.56-7.58a9,9,0,0,1,1.42-1.41c1.56-1.22,4.57-1.26,7.23-1.29,1.13,0,2.2,0,3.22-.12A14.83,14.83,0,0,0,1065,364.66Z"/><path class="cls-16" d="M1041.72,384.9c-4.72,3.49-8-3.57-18.19,2.43-6,3.56-4.14,8.23-4,8.5a4.1,4.1,0,0,1-2.07-3.12,8.8,8.8,0,0,1,3.72-6.37c3.66-2.38,9.27-4.28,14.07-2.48l.93.39C1037.75,384.92,1039.66,385.75,1041.72,384.9Z"/><path class="cls-17" d="M1030.28,407.52c-17.51-.31-27.13,5.28-27.13,5.28a4.77,4.77,0,0,1,1-1.07,24.23,24.23,0,0,1,9.06-5.18c2.94-.82,7.58-.19,11.68.36C1026.87,407.18,1028.67,407.42,1030.28,407.52Z"/><path class="cls-18" d="M1040.33,425.63c-.13-1.81-1.86-2.69-3-3.27a6.17,6.17,0,0,1-.68-.37c-.22-.17,0-1.32.75-2.37.14-.2.29-.39.45-.59,1.13-1.45,2.51-3.22,2.33-5.51a11.43,11.43,0,0,1-1.58,7,1.18,1.18,0,0,0,.13,1.51C1039.53,422.84,1040.61,424.21,1040.33,425.63Z"/><path class="cls-19" d="M1040,427.12a10.31,10.31,0,0,1-3.47,4.3,1.44,1.44,0,0,0,.26,2.42l.24.11c-1.16,0-2.36,0-3.57.05a44.8,44.8,0,0,0-6.78,1.13c-1.55.34-3,.66-4.52.87,5.83-2.08,13-4.91,16.39-7.32A4.33,4.33,0,0,0,1040,427.12Z"/><path class="cls-20" d="M1037,452.92c-3,2-9.4,6.46-3.64,5.56q-4.84,3.14-9.87,6c-1.51.86-3,1.63-4.29,1.49a2,2,0,0,1-1.38-.84.66.66,0,0,1-.14-.5c.14-.44.94-1,1.42-1.32,7.81-5.36,15.71-11.07,23.47-17l2.08-1.56a123.6,123.6,0,0,0,10.84-8.7c1.66-1.63,3.41-3.67,3.82-6.34a6.52,6.52,0,0,0-1.33-5S1073.82,429,1037,452.92Z"/><path class="cls-21" d="M1079.95,443.08c-3.33,9.67-6.89,10.9-9.75,14.09-.34.38-1.12,2.09.35,2a62.47,62.47,0,0,0-5,7.44,5.2,5.2,0,0,1-1.56,2,1.12,1.12,0,0,1-.85.18,2,2,0,0,1-.72-1.36c-.32-1.48.22-3.32,1.64-5.62a26,26,0,0,1,5.54-5.73,35.12,35.12,0,0,0,5.55-5.49c3.11-4.16,4.69-10.29,4.35-16.82a8.9,8.9,0,0,0-1.52-4.63C1079.14,430.36,1082.77,434.9,1079.95,443.08Z"/><path class="cls-22" d="M1143.31,491.46a8.11,8.11,0,0,1-6.09,3c-4.68.26-11.6-2.91-12-6.43a17.52,17.52,0,0,1,.48-5.25c.63-3.27,1.34-7-.64-11.35-.67-1.47-1.22-3-1.81-4.72-1.74-5-3.72-10.59-9.14-12.78-2.56-1-5.2-1.84-7.75-2.61-4.6-1.39-8.93-2.7-11.19-5a10.79,10.79,0,0,0-7.35-3.15s4.92-.49,12.92,4.67,14.17.67,19.17,7.5,4,10.36,6.16,13.51,4,11.83,4,16.49,13.53,9.67,12.26-7.75c.75,2.66,1.51,5.42,2.12,8.16A6.81,6.81,0,0,1,1143.31,491.46Z"/><path class="cls-22" d="M1151.9,378.82c4.82.69,16.3,31.78-6,56.95-4.46,5-6,4.88-8,4-2.51-1.11-3.34-4.19-2.17-7.69,1.36-4.09,9.24-11.78,13-23.85C1154.54,389.3,1142.14,377.42,1151.9,378.82Z"/><path class="cls-22" d="M1132.7,344.25s-10.27-.77-14,.08c-4.67,1.07-15.28,7.1-20.67,15.33-8.51,13-10.25,26.73-10.25,38.33,0,14.8,8.25,36.33,8.25,36.33-10.5-9.38-26.78-19.27-33.71-18.55-4.85.5-11.29,1.89-13.25,1.92s-5.38-2.14-3.87-3.58c4.37-4.17,4.56-13.64-1.74-13.43-.91,0-3.05-3-3.05-3a3.59,3.59,0,0,1,.9-5.59s6.59-2,7.82-3.64c2-2.68,4.33-11.85,4.33-11.85.94-3,6.43-4.52,11.59-6.27,6.18-2.09,17.87-9.69,22.73-14,5.68-5.09,12-17.78,19.48-19.45C1113.28,335.45,1132.7,344.25,1132.7,344.25Z"/><path class="cls-23" d="M1087.78,361.83s-15.11,22.82-3.75,51.69C1084,413.52,1062.19,385.83,1087.78,361.83Z"/><path class="cls-24" d="M1313.2,475.73c-4.5,1.32-8.35,3.13-11.5-.9s-9.48-4.65-11.83-2.48c-6,5.57-5.61,16.54-8.1,22.09s2.33,10.73,2.33,10.73a13.07,13.07,0,0,1-8.45-9.42,16.53,16.53,0,0,1-.27-4.93c.33-4.29,1.83-8.51,3.29-12.6a28.18,28.18,0,0,1,2.44-5.55,28.52,28.52,0,0,1,2.31-3,29.82,29.82,0,0,0,2.67-3.53c.2-.32.39-.67.6-1,.64-1.14,1.31-2.32,2-2.4.89-.1,2.2-.17,3.43-.17a13.83,13.83,0,0,1,2.6.18,8.25,8.25,0,0,1,3.2,2,21,21,0,0,0,2.16,1.65,41.32,41.32,0,0,0,4.68,2.46c.92.43,1.79.83,2.64,1.28,2.66,1.4,4.34,2.84,5.29,4.54A7.84,7.84,0,0,1,1313.2,475.73Z"/><path class="cls-25" d="M1388.36,478.89a16.1,16.1,0,0,1-.08,1.91c0,.4-.06.8-.08,1.22,0-3.85-4.32-12.14-8.69-11.89a21.73,21.73,0,0,0-7.87,1.81c-8.31,3.34-7.44,8.58-9.75,10.81s-1.45,19-1.28,19.92a59.13,59.13,0,0,1-1.94-6.29l-2.11-7.8a20.88,20.88,0,0,1-1-6c.1-2.81,1.42-5.53,2.77-8.08a21,21,0,0,1,2.52-4c1.93-2.22,4.77-3.66,7.51-5.06a9.53,9.53,0,0,1,2.05-.85,9.19,9.19,0,0,1,2.15-.13,17.87,17.87,0,0,0,2-.05,8.21,8.21,0,0,0,3.95-1.85c.87-.63,1.69-1.21,2.29-1.11.93.16,2.74,3.54,3.34,4.66.35.66.65,1.22.94,1.68a20.3,20.3,0,0,1,2.06,5.56c.15.56.3,1.11.46,1.66A16.23,16.23,0,0,1,1388.36,478.89Z"/><path class="cls-26" d="M1446.51,398.78c-8-5.11-11.88-4.48-13.65-4s-.66,2-4.65,5.75-3.76,9.07-5.14,17.26a27.06,27.06,0,0,0,1.42,14.42,23.17,23.17,0,0,1-3.93-3.53,11.75,11.75,0,0,1-2.65-4.41,14.78,14.78,0,0,1-.38-3.81,78.71,78.71,0,0,1,1.09-13.6,18,18,0,0,1,1.67-5.7,21.44,21.44,0,0,1,2.16-3.05,16.27,16.27,0,0,0,4-7.55,22,22,0,0,1,.73-2.34,4.42,4.42,0,0,1,2.81-2.8l.2,0a5.67,5.67,0,0,1,2.84,1.3,62.37,62.37,0,0,0,10.49,9.65l.43.31A16.25,16.25,0,0,1,1446.51,398.78Z"/><path class="cls-27" d="M1453.36,283.08c-5.33-1.62-5.49,3.41-10.75,2.34-7.37-1.5-11,2-9.42,12.17a160,160,0,0,1,1.47,22,10.34,10.34,0,0,1-1.51-3.88L1433,315c-.63-2.43-1.5-4.81-2.34-7.11a47.25,47.25,0,0,1-3-10.53,22.89,22.89,0,0,1,1.87-12.13,8.6,8.6,0,0,1,2.82-3.81c1.54-1,3.61-1.09,5.84-1.09h1.14l1.78,0,2.56,0a27,27,0,0,0,6.24-.51,4,4,0,0,0,1.29-.66l.25-.17c.36-.12,1,.29,1.29.84a7.67,7.67,0,0,1,.58,2.93Z"/><path class="cls-28" d="M1410.95,203.64a11.07,11.07,0,0,0-8-2.89c-5,.23-7.19,2.37-9.67,8.32s-9.08,12.27-7.08,18.27c1.27,3.81,2.32,11.31,9.51,15.67a10.49,10.49,0,0,1-3-1.13c-3.81-2.46-10.23-7.68-12-11-1.81-3.54-.27-8.6,1.09-13.07l.12-.41a64.27,64.27,0,0,1,2.47-6.42l3.29-7.73c.94-2.19,2-4.67,3.75-6a11.71,11.71,0,0,1,4.78-1.67,4.9,4.9,0,0,1,3.9.37l.85.33a27,27,0,0,0,2.65.76c1.82.46,3.53.89,4.69,2.06a11.65,11.65,0,0,1,2,3.24C1410.52,202.77,1410.72,203.2,1410.95,203.64Z"/></g><g id="Pincel"><path class="cls-29" d="M1021.84,542.55c-20.64,16-30.75,41.07-33.55,60.53-5.23,5.42-11.3,5.65-15.32,4a11.81,11.81,0,0,1-7.34-11.76c.9-22.33,12.67-52.11,36.92-68.29a12.68,12.68,0,0,1,16,.81A12.46,12.46,0,0,1,1021.84,542.55Z"/><path class="cls-29" d="M1049.38,556.57a.49.49,0,0,1,0,.11c-12.44,6.1-37.9,46.42-37.19,62.52a11.53,11.53,0,0,1-13,2.05,12.66,12.66,0,0,1-7.13-8.49,13,13,0,0,1-.36-4.34c1.63-19.27,11.29-46.48,33-63l.08-.06c1.56-1.18,3.17-2.31,4.86-3.38a13.49,13.49,0,0,1,16.61,1A11.81,11.81,0,0,1,1049.38,556.57Z"/><path class="cls-30" d="M996,526.85a82,82,0,0,0-16.7,17.65,99.45,99.45,0,0,0-17.16,44.58c-24.38-10.62-220.6-96.48-321.84-153.24C524.1,370.72,362.37,264.2,247.15,186.31c-38.43-26-73.92-50.27-105.06-71.79C65.29,61.44,14.93,25.24,12.15,22.29c-3.88-4.11-5-8.66-3-12.19s6.57-5.11,11.6-4c15.9,3.57,464.4,200.53,684.53,326.7C805.89,390.48,974.78,511.58,996,526.85Z"/><path class="cls-29" d="M1336.1,685.69a10.59,10.59,0,0,0-.34-1.48,5.39,5.39,0,0,0-3.12-3.68l-.07,0c-1.79-.74-21.28-10.08-58-27.67-73.72-35.31-197.11-94.42-203.6-96.21-5.73-1.59-16.29,2.21-19.39,3.41-10.78,4.18-37.14,45.91-35.41,59.72.65,5.14,2.77,14.46,5.71,17.61,4.05,4,121.63,81.09,184.8,122.52,35.41,23.22,53.93,35.38,55,36.2a5.28,5.28,0,0,0,2.88,1.12h0a6.79,6.79,0,0,0,2.16-.19,10.12,10.12,0,0,0,4.52-2.54c-2.17-1.47-4.35-2.93-6.54-4.34-.23.84-.47,1.68-.69,2.54l0,.08a1.07,1.07,0,0,1-1.31.78,1.08,1.08,0,0,1-.8-1.24,134.55,134.55,0,0,1,9.77-31A200.53,200.53,0,0,1,1287.29,733a232.69,232.69,0,0,1,19.63-25.65,202.23,202.23,0,0,1,20.37-20.19,2,2,0,0,1,.39-.33c.8-.68,1.61-1.36,2.43-2h0a1,1,0,0,1,.6-.21,1,1,0,0,1,.72,1.69l-.08.08-.87.88c1.78,1.12,3.59,2.21,5.4,3.27A13,13,0,0,0,1336.1,685.69Zm-77.37-15.46,0,.1a140.35,140.35,0,0,1-8.56,20.35c-1.65,3.28-3.39,6.52-5.16,9.74s-3.61,6.4-5.54,9.52c-3.79,6.28-7.71,12.48-11.84,18.54s-8.42,12-12.9,17.85l-.06.09a1,1,0,0,1-1.64-1.14c7.8-12.42,15.62-24.77,23.12-37.33,3.74-6.27,7.41-12.59,10.92-19s6.9-12.85,9.83-19.44a1,1,0,0,1,1.86.7Z"/><path class="cls-31" d="M1495.6,788.52l-5.25,7.5-6.21,8.89c-1.27-.42-2.59-.94-3.85-1.48-1.76-.76-3.49-1.61-5.2-2.51s-3.39-1.89-5-2.94-3.25-2.16-4.84-3.3h0a.42.42,0,0,0-.6.57h0a100.75,100.75,0,0,0,8.29,11.21c1.5,1.78,3,3.53,4.61,5.25q1.71,1.84,3.48,3.64c-.43.5-.88,1-1.33,1.48-.86.92-1.75,1.82-2.65,2.7a54,54,0,0,1-4.21,3.69l-1.87-2.36c-1.13-1.25-2.3-2.47-3.45-3.7s-2.41-2.33-3.61-3.49-2.47-2.25-3.73-3.33c-2.49-2.21-5.13-4.23-7.72-6.3s-5.28-4-8-5.89q-3.31-2.35-6.67-4.62c-1-.71-2.08-1.4-3.13-2.09q-3.31-2.19-6.68-4.3c-5.35-3.36-10.75-6.62-16.24-9.71l-.75-.43a.35.35,0,0,0-.47.12.36.36,0,0,0,.12.49c5.59,3.44,11.08,7.08,16.5,10.8S1437.83,796,1443,800c2.61,2,5.13,4.08,7.67,6.15s5,4.25,7.32,6.51a85.71,85.71,0,0,1,12.54,14.07l1.21,7.95c-.58.29-1.13.59-1.69.93a26.18,26.18,0,0,0-2.85,2,24.91,24.91,0,0,0-3.36,3.14,214.58,214.58,0,0,0-18.05-17.38c-3.39-3.06-7-5.8-10.58-8.66-1.82-1.37-3.67-2.7-5.5-4.05-.92-.67-1.83-1.35-2.77-2l-2.82-1.91c-1.9-1.26-3.74-2.6-5.69-3.79l-5.77-3.63-5.89-3.46c-2-1.14-4-2.2-6-3.3A206.93,206.93,0,0,0,1376,781.09a.48.48,0,0,0-.62.27.49.49,0,0,0,.27.63h0A207.71,207.71,0,0,1,1400,794.06c1.94,1.16,3.91,2.26,5.83,3.45l5.75,3.59,5.62,3.76c1.9,1.23,3.68,2.61,5.53,3.91l2.74,2c.91.67,1.79,1.38,2.68,2.06,1.77,1.39,3.57,2.75,5.32,4.16,3.43,2.93,7,5.73,10.21,8.83a222.76,222.76,0,0,1,18.29,18.72v16.07c-5.79-.48-11.68-1.31-17.48-2.31-6.52-1.13-13-2.51-19.46-4.07-3.21-.84-6.45-1.61-9.63-2.54l-4.8-1.36-4.76-1.47c-3.19-.94-6.32-2.06-9.48-3.1s-6.25-2.25-9.38-3.38h0a.69.69,0,0,0-.87.38.67.67,0,0,0-.06.28.69.69,0,0,0,.42.63q16.8,7.24,33.41,14.92,15.55,7.18,30.93,14.74L1449,876l-3.57,5.41c-3.82-.2-7.77-.63-11.63-1.19-2.12-.27-4.23-.68-6.35-1s-4.22-.8-6.31-1.27a191.51,191.51,0,0,1-24.72-7.2A182,182,0,0,1,1373,860.13l-5.61-3.16-5.52-3.37c-3.64-2.31-7.28-4.64-10.87-7.06-14.39-9.6-28.38-19.84-42.38-30.1l-21-15.37c-4-2.9-8.09-5.79-12.2-8.63l-.28-.19c-3-2.05-6-4.07-9-6l-.16-.08q1.64-5.31,3.67-10.45c1.69-4.35,3.57-8.63,5.58-12.83l3.6-7.07c1.25-2.33,2.56-4.63,3.83-6.94s2.75-4.51,4.07-6.8,2.86-4.45,4.28-6.68a312.19,312.19,0,0,1,18.93-25.47c1.63-2.09,3.4-4.06,5.13-6.07s3.52-4,5.29-6c.87-1,1.76-2,2.67-2.92s1.86-1.94,2.78-2.93c.6-.66,1.24-1.29,1.88-1.91l.09.07c2.57,1.63,5.19,3.18,7.83,4.69a2.31,2.31,0,0,0,.24.2,2,2,0,0,0,.53.24c4.36,2.47,8.8,4.82,13.3,7,7.49,3.65,15.17,6.86,22.87,10,15.39,6.2,31,11.66,45.9,18.56,1.84.89,3.71,1.74,5.53,2.67l5.44,2.83,5.3,3.06c1.75,1.05,3.47,2.18,5.21,3.27,6.89,4.44,13.58,9.22,20.09,14.25s12.83,10.29,19,15.76C1484.63,777.79,1490.26,783.07,1495.6,788.52Z"/><path class="cls-32" d="M1451.85,866.5l-.06,3q-12.35-5.55-24.79-10.8Q1439.34,862.81,1451.85,866.5Z"/><path d="M1258.18,669a1,1,0,0,0-1.32.51c-2.93,6.6-6.32,13.05-9.83,19.45s-7.18,12.71-10.93,19c-7.5,12.55-15.32,24.9-23.12,37.32a1,1,0,0,0,1.64,1.14l.06-.08c4.48-5.83,8.8-11.77,12.9-17.85s8.05-12.26,11.85-18.54c1.93-3.12,3.7-6.34,5.53-9.52s3.51-6.46,5.17-9.74a141.15,141.15,0,0,0,8.56-20.35l0-.1A1,1,0,0,0,1258.18,669Z"/><path d="M1481.56,769.69q-9.32-8.29-19.19-15.94c-6.59-5.08-13.37-9.93-20.37-14.45-1.77-1.11-3.51-2.25-5.3-3.32l-5.45-3.15-5.56-2.9c-1.86-.94-3.76-1.81-5.64-2.72-15.14-7-30.81-12.49-46.1-18.64-7.64-3.09-15.24-6.26-22.62-9.85q-6-2.93-11.85-6.19a16.11,16.11,0,0,0,.1-9.52,9.29,9.29,0,0,0-5.48-6.2c-1.35-.54-26.26-12.47-57.79-27.58-99.9-47.86-198-94.73-204.26-96.47-5.12-1.42-12.46.32-18,2.14a15.73,15.73,0,0,0-5.13-14.94c-5.95-5.34-14.36-5.88-21.43-1.4l-.62.41a16.65,16.65,0,0,0-5.75-14.14c-5.91-5.18-14.08-5.63-20.8-1.14l-1,.66C983.59,513,810,388.21,707.27,329.35,584.42,258.93,392.79,168.23,289.5,120.44,150.36,56.06,31.08,4.34,21.64,2.22,14.85.69,8.58,3,5.68,8.12S4.09,19.58,9.24,25C13.86,29.93,119,104.51,244.9,189.63,360.19,267.56,522,374.14,638.32,439.33,741.65,497.26,943.6,585.39,961.73,593.27c0,.63-.08,1.26-.1,1.89a15.93,15.93,0,0,0,9.82,15.63,16.31,16.31,0,0,0,6.21,1.23,17.87,17.87,0,0,0,10-3.22,16.69,16.69,0,0,0,9.85,16.1,16.14,16.14,0,0,0,6.7,1.49,15.43,15.43,0,0,0,8.56-2.62c.86,4.65,2.77,12.67,6.19,16.34,3.25,3.48,89.61,60.23,185.52,123.13,29.93,19.63,53.58,35.14,54.75,36a9.32,9.32,0,0,0,5.8,2,11.24,11.24,0,0,0,2.64-.33,14,14,0,0,0,6.92-4.13c3.57,2.48,7.1,5,10.64,7.55l21,15.35c14,10.26,28,20.53,42.53,30.2,3.61,2.43,7.29,4.78,11,7.12l5.59,3.42,5.74,3.23A185.46,185.46,0,0,0,1395,874.52a196.56,196.56,0,0,0,25.25,7.35c2.14.48,4.3.87,6.45,1.3s4.32.77,6.5,1a127,127,0,0,0,13.19,1.29,1.93,1.93,0,0,0,1.69-.87l0,0,6.56-10,.29-.49a5.46,5.46,0,0,0,.64-4l-1-4.55v0a1.93,1.93,0,0,0-1.44-1.55c-3.34-.83-6.68-1.71-10-2.6l.74.16a192.87,192.87,0,0,0,20,3.18h.17a2,2,0,0,0,2-2V844.45a21.64,21.64,0,0,1,3.72-3.7,22.77,22.77,0,0,1,2.44-1.68,19.69,19.69,0,0,1,2.55-1.3l0,0a2,2,0,0,0,1.22-2.15l-1.32-8.72a58.79,58.79,0,0,0,5.18-4.47q1.44-1.39,2.81-2.86c.91-1,1.78-2,2.66-3h0l.06-.08,0,0a1.88,1.88,0,0,0-.31-2.65c-1.77-1.37-3.55-2.86-5.28-4.35s-3.42-3-5.09-4.6-3.49-3.4-5.15-5.18c1.39,1.16,2.83,2.27,4.29,3.34,1.62,1.16,3.29,2.28,5,3.32a45.14,45.14,0,0,0,5.48,2.86h0a1.86,1.86,0,0,0,2.2-.67l.06-.09,13.25-19v0a2,2,0,0,0-.2-2.5C1493.81,780.9,1487.77,775.24,1481.56,769.69ZM640.27,435.84C524.1,370.72,362.37,264.2,247.14,186.31c-133.19-90-231.09-159.89-235-164s-5-8.67-3-12.19,6.58-5.11,11.61-4c15.9,3.57,464.4,200.53,684.52,326.7,100.6,57.66,269.49,178.77,290.69,194-20.46,15.9-31.38,41.24-33.86,62.23C937.74,578.46,741.52,492.6,640.27,435.84ZM973,607.08a11.83,11.83,0,0,1-7.35-11.76c.91-22.33,12.68-52.11,36.93-68.29a12.68,12.68,0,0,1,15.95.82,12.45,12.45,0,0,1,3.34,14.71c-20.64,16-30.75,41.06-33.55,60.52C983.06,608.5,977,608.73,973,607.08Zm39.18,12.12a11.54,11.54,0,0,1-13,2.05,12.76,12.76,0,0,1-7.49-12.84c1.62-19.27,11.28-46.48,33-63l.08-.06c1.56-1.18,3.17-2.32,4.86-3.38a13.5,13.5,0,0,1,16.62,1,11.83,11.83,0,0,1,3.08,13.74C1036.89,562.78,1011.44,603.1,1012.15,619.2ZM1266.74,797a5.71,5.71,0,0,1-5.05-.93c-1.07-.82-19.59-13-55-36.2-63.17-41.43-180.75-118.54-184.79-122.52-2.95-3.15-5.07-12.47-5.71-17.61-1.74-13.82,24.62-55.55,35.41-59.72,3.1-1.2,13.66-5,19.39-3.42,6.49,1.79,129.88,60.9,203.6,96.22,37.29,17.87,56.81,27.21,58.06,27.7a5.37,5.37,0,0,1,3.11,3.67,12.36,12.36,0,0,1,.14,6.28q-2.73-1.59-5.4-3.27l.87-.88.08-.08a1,1,0,0,0-1.34-1.47c-.82.67-1.62,1.35-2.43,2a2,2,0,0,0-.39.33,202.69,202.69,0,0,0-20.37,20.19A232.36,232.36,0,0,0,1287.29,733a200.39,200.39,0,0,0-15.63,28.33,134.57,134.57,0,0,0-9.77,31,1.08,1.08,0,0,0,2.11.46l0-.08c.22-.85.45-1.7.69-2.54q3.29,2.13,6.53,4.35A10,10,0,0,1,1266.74,797Zm185.11,69.49-.06,3q-12.35-5.55-24.79-10.8Q1439.34,862.82,1451.85,866.5Zm32.29-61.58c-1.27-.42-2.59-.94-3.85-1.48-1.76-.76-3.49-1.61-5.21-2.51s-3.39-1.89-5-2.94-3.25-2.15-4.84-3.3h0a.42.42,0,0,0-.6.57h0a101.45,101.45,0,0,0,8.28,11.21q2.25,2.67,4.62,5.24c1.14,1.23,2.3,2.44,3.48,3.64-.44.5-.88,1-1.33,1.48q-1.29,1.39-2.65,2.7a55.55,55.55,0,0,1-4.21,3.7l-1.87-2.36c-1.13-1.26-2.3-2.47-3.44-3.71s-2.41-2.32-3.61-3.49-2.47-2.24-3.73-3.33c-2.49-2.21-5.13-4.23-7.72-6.3s-5.28-4-8-5.89q-8.08-5.75-16.48-11c-5.59-3.51-11.24-6.92-17-10.14a.35.35,0,0,0-.35.61c5.59,3.45,11.08,7.08,16.5,10.81S1437.83,796,1443,800c2.61,2,5.13,4.09,7.67,6.15s5,4.24,7.32,6.51a86.31,86.31,0,0,1,12.54,14.07l1.21,7.95c-.58.29-1.13.6-1.69.93a26.75,26.75,0,0,0-2.85,2,25.43,25.43,0,0,0-3.35,3.14,217.44,217.44,0,0,0-18-17.38c-3.39-3.06-7-5.8-10.59-8.65-1.81-1.38-3.67-2.7-5.5-4.05-.92-.67-1.83-1.35-2.76-2l-2.83-1.92c-1.9-1.26-3.74-2.6-5.68-3.78l-5.78-3.64-5.89-3.45c-2-1.14-4-2.2-6-3.3A208.57,208.57,0,0,0,1376,781.09a.49.49,0,0,0-.36.9h0A207.29,207.29,0,0,1,1400,794.06c1.94,1.15,3.91,2.26,5.83,3.45l5.74,3.59,5.63,3.76c1.89,1.23,3.68,2.61,5.52,3.91l2.74,2c.9.67,1.78,1.38,2.68,2.06,1.77,1.39,3.57,2.75,5.33,4.16,3.43,2.92,7,5.72,10.21,8.83a221.59,221.59,0,0,1,18.29,18.72v16.06c-5.79-.47-11.68-1.31-17.48-2.3-6.53-1.13-13-2.51-19.47-4.08-3.21-.84-6.44-1.61-9.63-2.54l-4.79-1.36-4.76-1.47c-3.19-.94-6.32-2.07-9.48-3.1s-6.26-2.25-9.39-3.38h0a.69.69,0,0,0-.51,1.29h0q16.8,7.25,33.41,14.91,15.56,7.19,30.94,14.74l-5.37,8.14c-3.83-.2-7.77-.63-11.63-1.19-2.13-.27-4.23-.68-6.35-1s-4.22-.81-6.31-1.27a192.56,192.56,0,0,1-24.72-7.2A181.44,181.44,0,0,1,1373,860.13l-5.61-3.15-5.52-3.38c-3.65-2.31-7.29-4.63-10.87-7.05-14.39-9.6-28.38-19.85-42.38-30.1l-21-15.37c-4-2.91-8.1-5.8-12.2-8.63a2,2,0,0,0-.28-.19c-3-2-6-4.07-9-6h0l-.16-.08a170.79,170.79,0,0,1,9.25-23.28l3.6-7.07c1.25-2.33,2.56-4.63,3.83-6.94s2.75-4.51,4.08-6.8,2.86-4.45,4.28-6.68a309.32,309.32,0,0,1,18.93-25.47c1.63-2.09,3.4-4.06,5.13-6.07s3.51-4,5.29-6,3.63-3.89,5.44-5.85c.6-.66,1.24-1.29,1.89-1.91l.08.07c2.57,1.63,5.19,3.18,7.83,4.69a2,2,0,0,0,.24.2,2,2,0,0,0,.53.24q6.55,3.72,13.3,7c7.5,3.66,15.18,6.86,22.87,10,15.4,6.19,31,11.65,45.9,18.56,1.84.89,3.71,1.74,5.54,2.67l5.44,2.83,5.3,3.06c1.75,1.05,3.47,2.18,5.21,3.27,6.89,4.45,13.58,9.23,20.09,14.25s12.83,10.29,19,15.76c5.72,5.11,11.35,10.39,16.7,15.84Z"/><path class="cls-33" d="M1393.84,769.76c-33.71-5-74.61-31.28-85.27-38.46Z"/><path class="cls-33" d="M1461.95,860.58s-75.81-64.49-110-73.49c-20.53-5.42-31.53-12-31.53-12S1404.54,840.65,1461.95,860.58Z"/><path class="cls-32" d="M1471.75,834.71c-.58.29-1.13.59-1.69.93a26.18,26.18,0,0,0-2.85,2,24.91,24.91,0,0,0-3.36,3.14,214.58,214.58,0,0,0-18.05-17.38c-3.39-3.06-7-5.8-10.58-8.66-1.82-1.37-3.67-2.7-5.5-4.05-.92-.67-1.83-1.35-2.77-2l-2.82-1.91c-1.9-1.26-3.74-2.6-5.69-3.79l-5.77-3.63-5.89-3.46c-2-1.14-4-2.2-6-3.3A206.93,206.93,0,0,0,1376,781.09S1438.79,794.42,1471.75,834.71Z"/><path class="cls-33" d="M1449,876l-3.57,5.41c-3.82-.2-7.77-.63-11.63-1.19-2.12-.27-4.23-.68-6.35-1s-4.22-.8-6.31-1.27a191.51,191.51,0,0,1-24.72-7.2A182,182,0,0,1,1373,860.13l-5.61-3.16-5.52-3.37c-3.64-2.31-7.28-4.64-10.87-7.06-14.39-9.6-28.38-19.84-42.38-30.1l-21-15.37c-4-2.9-8.09-5.79-12.2-8.63l-.28-.19c-3-2.05-6-4.07-9-6l-.16-.08q1.64-5.31,3.67-10.45c6.55,3.32,31,18.92,59.14,46.65C1359.81,853,1434.35,879.17,1449,876Z"/><path class="cls-33" d="M1472.8,823.22l-1.87-2.36c-1.13-1.25-2.3-2.47-3.45-3.7s-2.41-2.33-3.61-3.49-2.47-2.25-3.73-3.33c-2.49-2.21-5.13-4.23-7.72-6.3s-5.28-4-8-5.89q-3.31-2.35-6.67-4.62l-1.55-1.15-1.58-.94-24.11-14.31c.12,0,.52.12,1.19.3C1419,779.38,1456.95,790.95,1472.8,823.22Z"/><path class="cls-33" d="M1495.6,788.52l-5.25,7.5c-24.23-11.23-50.92-50.65-89.65-60.27-35.25-8.76-69.73-34.54-77.76-40.8.93-1,1.86-1.94,2.78-2.93.6-.66,1.24-1.29,1.88-1.91l.09.07c2.57,1.63,5.19,3.18,7.83,4.69a2.31,2.31,0,0,0,.24.2,2,2,0,0,0,.53.24c4.36,2.47,8.8,4.82,13.3,7,7.49,3.65,15.17,6.86,22.87,10,15.39,6.2,31,11.66,45.9,18.56,1.84.89,3.71,1.74,5.53,2.67l5.44,2.83,5.3,3.06c1.75,1.05,3.47,2.18,5.21,3.27,6.89,4.44,13.58,9.22,20.09,14.25s12.83,10.29,19,15.76C1484.63,777.79,1490.26,783.07,1495.6,788.52Z"/></g><path class="cls-34" d="M996,526.85a82,82,0,0,0-16.7,17.65S744.57,385.71,662.7,338.72C546.48,272,206.5,102.33,68.45,35.5c-10.52-5.09-17.16,4.18-8.25,11.75l81.89,67.27C65.29,61.44,14.93,25.24,12.15,22.29c-3.88-4.11-5-8.66-3-12.19s6.57-5.11,11.6-4c15.9,3.57,464.4,200.53,684.53,326.7C805.89,390.48,974.78,511.58,996,526.85Z"/><path class="cls-35" d="M1021.84,542.55s1.06-13-17.14-8.88c-10.39,2.33-21,15.44-28.38,28.58-8.75,15.68-10.7,33.07-10.7,33.07.9-22.33,12.67-52.11,36.92-68.29a12.68,12.68,0,0,1,16,.81A12.46,12.46,0,0,1,1021.84,542.55Z"/><path class="cls-35" d="M1049.38,556.57c-.15-2.05-2.17-13.9-18.8-8.82-9.27,2.83-16.75,14.13-27.5,29.5-8.8,12.58-10.07,30.73-11,35.51a13,13,0,0,1-.36-4.34c1.63-19.27,11.29-46.48,33-63l.08-.06c1.56-1.18,3.17-2.31,4.86-3.38a13.49,13.49,0,0,1,16.61,1A11.81,11.81,0,0,1,1049.38,556.57Z"/><path class="cls-35" d="M1256.87,669.53c-2.93,6.59-6.32,13-9.83,19.44s-7.18,12.71-10.92,19c-7.5,12.56-15.32,24.91-23.12,37.33C1213,745.28,1232.79,690.8,1256.87,669.53Z"/><path class="cls-35" d="M1332.57,680.5c-102.55-34-252-111-255.87-112.5s-15.24-1.09-17.83-1c-14.54.5-33.57,37.89-38.84,45.76-3,4.47,1.86,24.6,1.86,24.6-2.94-3.15-5.06-12.47-5.71-17.61-1.73-13.81,24.63-55.54,35.41-59.72,3.1-1.2,13.66-5,19.39-3.41,6.49,1.79,129.88,60.9,203.6,96.21C1311.29,670.42,1330.78,679.76,1332.57,680.5Z"/><path class="cls-36" d="M1271.26,794.47a10.12,10.12,0,0,1-4.52,2.54,6.79,6.79,0,0,1-2.16.19h0c-3.86-1-2.67-4.91-2.67-4.91a1.08,1.08,0,0,0,.8,1.24,1.07,1.07,0,0,0,1.31-.78l0-.08c.22-.86.46-1.7.69-2.54C1266.91,791.54,1269.09,793,1271.26,794.47Z"/><path class="cls-36" d="M1335.9,690.48c-1.81-1.06-3.62-2.15-5.4-3.27l.87-.88.08-.08a1,1,0,0,0-.72-1.69c1.24-.38,4-1,5.37,1.13A13,13,0,0,1,1335.9,690.48Z"/><path class="cls-32" d="M1451.85,866.5l-.06,3q-12.35-5.55-24.79-10.8Q1439.34,862.81,1451.85,866.5Z"/></g></g></g></svg>