<svg xmlns="http://www.w3.org/2000/svg" viewBox="0 0 1314.52 1016.53"><defs><style>.cls-1{stroke:#000;stroke-miterlimit:10;stroke-width:0.25px;}.cls-2{fill:#3971d8;}.cls-3{fill:#df8f28;}.cls-4{fill:#fff;}.cls-5{fill:#fad148;}.cls-6{fill:#ff0;}</style></defs><title>Klonoa icon vector</title><g id="Camada_2" data-name="Camada 2"><g id="Chapeu_Icon" data-name="Chapeu Icon"><path class="cls-1" d="M1302.13,269.32c-8.56-20.83-25.57-49.81-57.91-69.54C1193.53,168.86,1017,64.09,873.79,14.13a252.93,252.93,0,0,0-166,0c-143.24,50-319.74,154.73-370.43,185.65C305,219.51,288,248.49,279.47,269.32c-10.52,25.59-14.23,53.47-10.24,76.77l9.54,200.47a227.43,227.43,0,0,0,6.57,47.71c-3.33,7.49-12.38,24.32-33.8,46.86C224.19,669.93,170.7,714,71.2,760.58,47.32,771.75,29,786.47,16.69,804.32,5.09,821.17-.61,840.36.2,859.81,1.79,897.4,27,930.62,64.52,944.45a111.85,111.85,0,0,0,38.79,6.79,133.27,133.27,0,0,0,41.13-6.76C171.13,935.8,197.17,919.19,222,895c14.34,8.16,28.44,18.5,44.14,30,32.12,23.58,68.53,50.3,122.63,68.84,44,15.06,93.77,22.53,150.93,22.53q34.64,0,73-3.65c70.11-6.65,135.3-26.84,193.75-60,46.72-26.5,89.19-61.26,126.22-103.32,48.81-55.45,75-108.49,84.8-130.86,56.17-9.38,104.19-20.54,143-29.56,22.26-5.17,41.48-9.64,57-12.52,52.14-9.69,82.46-55.85,85.37-129.95l9.54-200.47C1316.36,322.79,1312.65,294.91,1302.13,269.32ZM901.63,824.16C824,911.82,725.49,961.87,608.91,972.94c-185.86,17.64-256.64-34.31-319.09-80.15-20.5-15-40.3-29.58-62.67-40.15l-1-.49-.09,0a166,166,0,0,0-46.3-14.05C106.15,827.19,79.21,841.71,74.18,844,49,855.52,59.47,894,94.28,878.57c3.26-1.45,20.6-9.66,79.6-.93,2.17.32,4.31.7,6.42,1.12-15.94,13.16-32.08,22.43-48.23,27.68-19.13,6.22-37.7,6.38-53.71.48-22.3-8.23-37.29-27.38-38.19-48.79-1-24.23,16.47-46.58,48-61.32,87-40.68,153-85.12,196.07-132.07a265.53,265.53,0,0,0,21-25.77c14.31,20.12,34.14,32.94,58.9,37.54,15.49,2.88,34.71,7.35,57,12.52C505,708.52,631.78,738,790.8,738a1342.31,1342.31,0,0,0,178.72-12.15A500,500,0,0,1,901.63,824.16Z"/><path class="cls-2" d="M969.52,725.82a500,500,0,0,1-67.89,98.34C824,911.82,725.49,961.87,608.91,972.94c-185.86,17.64-256.64-34.31-319.09-80.15-20.5-15-40.3-29.58-62.67-40.15l-1-.49-.09,0a166,166,0,0,0-46.3-14.05C106.15,827.19,79.21,841.71,74.18,844,49,855.52,59.47,894,94.28,878.57c3.26-1.45,20.6-9.66,79.6-.93,2.17.32,4.31.7,6.42,1.12-15.94,13.16-32.08,22.43-48.23,27.68-19.13,6.22-37.7,6.38-53.71.48-22.3-8.23-37.29-27.38-38.19-48.79-1-24.23,16.47-46.58,48-61.32,87-40.68,153-85.12,196.07-132.07a265.53,265.53,0,0,0,21-25.77c14.31,20.12,34.14,32.94,58.9,37.54,15.49,2.88,34.71,7.35,57,12.52C505,708.52,631.78,738,790.8,738A1342.31,1342.31,0,0,0,969.52,725.82Z"/><path class="cls-2" d="M1272.79,340.19l-.25,1.34-9.67,203.21v.17c-1,26-5.72,47.12-14,62.75-8.82,16.67-21.49,26.32-38.72,29.53-16.36,3-36,7.6-58.7,12.88C1069.33,669.14,945.23,698,790.8,698s-278.53-28.83-360.64-47.9c-22.72-5.28-42.34-9.84-58.7-12.88-17.23-3.21-29.9-12.86-38.72-29.53-8.28-15.63-13-36.75-14-62.75l-9.68-203.38-.25-1.34c-6.12-32.88,11-82.85,49.41-106.27,49.83-30.4,223.25-133.37,362.76-182a212.8,212.8,0,0,1,139.64,0c139.51,48.65,312.93,151.62,362.76,182C1261.77,257.34,1278.92,307.31,1272.79,340.19Z"/><path class="cls-1" d="M1312.27,892.13,1297.6,873c-1.3-1.69-32.05-41.5-72.68-71.8-.3-.24-.61-.47-.92-.69-23.94-17.69-51.12-31.32-69.25-39.48a42.17,42.17,0,0,0-13-16c-.93-.69-1.9-1.34-2.88-1.94C1013.36,665.55,927.41,612,919.64,606.57a41.7,41.7,0,0,0-21.33-7.92,42.92,42.92,0,0,0-24.24-24c-.76-.92-1.57-1.81-2.42-2.66-1.15-1.16-29.06-29.07-85.53-78.1C734.42,449,647.75,377,528.46,288.84,399.33,193.43,104.84,19.53,92.37,12.17l-.12-.07A59.6,59.6,0,0,0,46.94,5.51,61.78,61.78,0,0,0,1.3,67.9,59.55,59.55,0,0,0,21.24,109c10.7,9.73,244.9,222.44,394.21,332.75,215.91,159.53,333.86,221,367.35,237.12a42.83,42.83,0,0,0,36.14,26.94,41.8,41.8,0,0,0,13.7,18.08c6.7,5.36,83.23,70.83,195.5,167.24.75.65,1.55,1.28,2.35,1.88a40.83,40.83,0,0,0,19,7.68c12.52,14.42,33.63,36.6,60.15,56.2,45.58,33.68,89.94,48.85,91.81,49.49l24.86,8.38a10.38,10.38,0,0,0,13.19-6.67l8.05-25.05a29.24,29.24,0,0,1,9.61-13.9l3.67-2.93,1.64-1.31a29.18,29.18,0,0,0,9.42-13.38l.67-2,2.14-6.26a29.22,29.22,0,0,1,8.28-12.41l9.79-8.68,18.09-16A10.38,10.38,0,0,0,1312.27,892.13ZM782.55,638.21C736.3,614.28,623.83,550.65,437,412.62,287.19,301.93,45.57,82.14,45.57,82.14,24.1,62.76,49,28.8,73.93,43.4c0,0,303.87,179.22,433,274.61C682.74,447.93,788.42,543.14,828.05,580.37c-10.9,6.28-21.33,15.79-29.79,27.24A103.28,103.28,0,0,0,782.55,638.21Zm33.85,37.17s0,.06,0,.09a11.76,11.76,0,0,1-2-1.18c-6.94-5.12-7.73-16.73-3.14-29.71a79.11,79.11,0,0,1,26.13-35.37c11.07-8.21,22.39-10.86,29.33-5.74a12,12,0,0,1,1.75,1.58,2.55,2.55,0,0,0-.23.12c-12.23,6.19-24.13,16.61-33.61,29.44S818.73,661.88,816.4,675.38Zm216.44,164a57.22,57.22,0,0,0-2.52,15.43c-54.61-46.88-175.31-150.42-180.1-154a12.58,12.58,0,0,1-2.18-2.07c-6.6-8-4.13-24.83,5.95-41.14,1.19-2,2.51-3.9,3.93-5.83s2.9-3.76,4.42-5.48c12.64-14.43,28-21.73,37.58-17.77a12.1,12.1,0,0,1,2.62,1.48c7.74,5.72,138.43,86.69,200.8,125.28a57.64,57.64,0,0,0-14.29,7.16c-11.19,7.72-22.32,19-33.09,33.59C1044.83,811.12,1037.05,825.69,1032.84,839.36Zm228.58,62.38-9.54,8.45a29.1,29.1,0,0,0-8.27,12.41l-2.49,7.28a29.26,29.26,0,0,1-9.42,13.39l-5.6,4.46a29.22,29.22,0,0,0-9.59,13.89,10.37,10.37,0,0,1-13.82,6.43,345.9,345.9,0,0,1-71.47-40.3,338,338,0,0,1-45.32-40.81c-5.72-6.12-10.37-11.52-13.78-15.63a24.51,24.51,0,0,1-4.43-7.94,22,22,0,0,1-.25-13.46c2.32-7.57,7.26-18.4,17.59-32.38,9.87-13.35,18.23-20.94,24.48-25.25a22.26,22.26,0,0,1,16.13-3.48,25.12,25.12,0,0,1,5.91,1.68c5.45,2.31,12.89,5.61,21.36,9.76,15,7.36,33.24,17.41,49.54,29.45.26.2.53.39.78.6,26.65,19.86,48.87,44.64,59.28,57A10.36,10.36,0,0,1,1261.42,901.74Z"/><path class="cls-3" d="M883.92,600.77a3.31,3.31,0,0,0-.3.16c-15.88,8-30.32,14.92-45.15,34.25-17.29,22.53-17.79,37.69-20.82,55.22,0,0,0,.08,0,.12-.88-.43-6.23-4.05-7-4.65-9-6.65-13.77-22.25-7.81-39.1a102.69,102.69,0,0,1,33.92-45.91c14.37-10.66,32.8-13.57,41.81-6.92C879.36,594.56,883.24,600,883.92,600.77Z"/><path class="cls-4" d="M1261.42,901.74l-9.54,8.45a29.1,29.1,0,0,0-8.27,12.41l-2.49,7.28a29.26,29.26,0,0,1-9.42,13.39l-5.6,4.46a29.22,29.22,0,0,0-9.59,13.89,10.37,10.37,0,0,1-13.82,6.43,345.9,345.9,0,0,1-71.47-40.3,338,338,0,0,1-45.32-40.81c-5.72-6.12-10.37-11.52-13.78-15.63a24.51,24.51,0,0,1-4.43-7.94,22,22,0,0,1-.25-13.46c2.32-7.57,7.26-18.4,17.59-32.38,9.87-13.35,18.23-20.94,24.48-25.25a22.26,22.26,0,0,1,16.13-3.48,25.12,25.12,0,0,1,5.91,1.68c5.45,2.31,12.89,5.61,21.36,9.76,15,7.36,33.24,17.41,49.54,29.45.26.2.53.39.78.6,26.65,19.86,48.87,44.64,59.28,57A10.36,10.36,0,0,1,1261.42,901.74Z"/><path class="cls-3" d="M1103.34,755.3a57.64,57.64,0,0,0-14.29,7.16c-11.19,7.72-22.32,19-33.09,33.59-11.13,15.07-18.91,29.64-23.12,43.31a57.22,57.22,0,0,0-2.52,15.43c-54.61-46.88-175.31-150.42-180.1-154a12.58,12.58,0,0,1-2.18-2.07c-6.6-8-4.13-24.83,5.95-41.14,1.19-2,2.51-3.9,3.93-5.83s2.9-3.76,4.42-5.48c12.64-14.43,28-21.73,37.58-17.77a12.1,12.1,0,0,1,2.62,1.48C910.28,635.74,1041,716.71,1103.34,755.3Z"/><path class="cls-5" d="M828.05,580.37c-10.9,6.28-21.33,15.79-29.79,27.24a103.28,103.28,0,0,0-15.71,30.6C736.3,614.28,623.83,550.65,437,412.62,287.19,301.93,45.57,82.14,45.57,82.14,24.1,62.76,49,28.8,73.93,43.4c0,0,303.87,179.22,433,274.61C682.74,447.93,788.42,543.14,828.05,580.37Z"/><path d="M1132.06,284.26q2,0,4,.11c58,3.17,101.36,74.16,96.78,158.56-4.47,82.44-53,147.18-109.33,147.18q-2,0-4-.11c-28.79-1.57-54-19.83-71.45-48.14a17.89,17.89,0,0,1,2.05-21.39l72.73-78.93L1040,406.14a17.6,17.6,0,0,1-9.8-20.86c16.38-59.21,56.61-101,101.88-101m-.2-37.12h0a111.28,111.28,0,0,0-47.34,10.73,137.59,137.59,0,0,0-39.25,28.05c-22.57,22.72-39.7,53.54-49.53,89.13-7.37,26.69,3.31,44.29,28.09,54.89l59.91,19.5-59.91,58.83c-16.8,18.26-19,32.39-6,53.6,11.56,18.74,25.62,33.88,41.79,45,17.82,12.27,37.26,19.05,57.79,20.18,2,.11,3.95.16,5.9.16,20,0,39.46-5.46,57.78-16.22,16.64-9.78,31.63-23.54,44.54-40.89,24.89-33.46,40-77.89,42.56-125.1a247.1,247.1,0,0,0-9.77-85c-8-26.53-20.69-50.33-36.68-68.84a133.69,133.69,0,0,0-37.27-30.48,110.08,110.08,0,0,0-46.74-13.4c-2-.11-3.94-.16-5.9-.16Z"/><path class="cls-6" d="M1244.71,443.38c-5.11,91-61.78,161.91-126.58,158.49-32.15-1.7-60.25-21.37-79.78-51.88a18.76,18.76,0,0,1,2.29-23.05l81.22-85.06-92.55-38.15a18.77,18.77,0,0,1-10.94-22.48c18.83-65.7,65.89-111.51,118.27-108.75C1201.44,275.91,1249.82,352.42,1244.71,443.38Z"/><path d="M951.93,454.74c.33,0,.66,0,1,0,12.47.79,21.89,16.2,21,34.42-.83,17.74-11.1,31.6-23.15,31.6-.33,0-.66,0-1,0-12.47-.79-21.89-16.2-21-34.42.83-17.74,11.1-31.6,23.15-31.6m0-31.11h0c-13.64,0-26.84,7.32-36.23,20.09-8.14,11.07-13,25.6-13.73,40.92-.74,15.79,3,31.21,10.42,43.41,8.68,14.2,21.79,22.86,36,23.76.81.05,1.64.08,2.45.08,13.64,0,26.85-7.32,36.23-20.09,8.14-11.07,13-25.6,13.73-40.92.74-15.79-3-31.21-10.42-43.41-8.68-14.2-21.79-22.86-36-23.76-.81-.05-1.64-.08-2.45-.08Z"/><path class="cls-6" d="M980.42,489.59c-1.1,23.43-15,41.6-31,40.59s-28.15-20.83-27.05-44.26,15-41.6,31-40.59S981.52,466.16,980.42,489.59Z"/></g></g></svg>